<svg width="281" height="173" viewBox="0 0 281 173" fill="none" xmlns="http://www.w3.org/2000/svg">
<g filter="url(#filter0_b_205_3783)">
<rect y="0.272949" width="280.904" height="172.288" rx="10.4803" fill="white" fill-opacity="0.04"/>
<rect x="0.673553" y="0.946502" width="279.557" height="170.941" rx="9.80678" stroke="url(#paint0_linear_205_3783)" stroke-width="1.34711"/>
<rect x="0.673553" y="0.946502" width="279.557" height="170.941" rx="9.80678" stroke="url(#paint1_linear_205_3783)" stroke-width="1.34711"/>
</g>
<path d="M21.0029 148.627C21.5512 149.265 22.1058 149.743 22.6668 150.062C23.2342 150.374 23.8144 150.53 24.4073 150.53C24.8854 150.53 25.2807 150.393 25.593 150.119C25.9118 149.838 26.0712 149.491 26.0712 149.077C26.0712 148.624 25.9373 148.276 25.6696 148.034C25.4082 147.786 24.8057 147.534 23.8622 147.279C22.4277 146.883 21.4205 146.393 20.8403 145.806C20.2665 145.213 19.9797 144.403 19.9797 143.377C19.9797 142.115 20.3749 141.092 21.1655 140.307C21.9624 139.523 23.0748 139.058 24.5029 138.911V137.582H25.7365L25.7461 138.892C26.3007 138.949 26.8458 139.08 27.3813 139.284C27.9168 139.482 28.446 139.756 28.9687 140.107L27.7543 142.832C27.3271 142.469 26.8872 142.194 26.4346 142.01C25.9819 141.825 25.5293 141.732 25.0767 141.732C24.6176 141.732 24.2479 141.841 23.9674 142.057C23.6869 142.268 23.5466 142.545 23.5466 142.889C23.5466 143.24 23.6709 143.521 23.9196 143.731C24.1682 143.941 24.6559 144.142 25.3827 144.333L25.507 144.372C27.0753 144.792 28.1049 145.258 28.5958 145.768C28.9273 146.112 29.1791 146.523 29.3512 147.001C29.5298 147.48 29.619 148.009 29.619 148.589C29.619 149.915 29.2174 151.015 28.4141 151.888C27.6108 152.761 26.5366 153.268 25.1914 153.409V155.732H23.9578V153.447C23.0525 153.434 22.2206 153.265 21.4619 152.94C20.7032 152.615 19.9733 152.111 19.272 151.429L21.0029 148.627ZM42.0316 153.169H31.3403L37.6231 145.73C38.0056 145.277 38.2861 144.869 38.4646 144.505C38.6495 144.136 38.742 143.791 38.742 143.473C38.742 142.982 38.5858 142.583 38.2734 142.277C37.9674 141.965 37.5625 141.809 37.0589 141.809C36.4596 141.809 35.9974 142 35.6723 142.383C35.3535 142.765 35.1941 143.32 35.1941 144.046V144.219H31.828V144.123C31.828 142.536 32.2902 141.286 33.2146 140.374C34.1454 139.463 35.4141 139.007 37.0206 139.007C38.589 139.007 39.8385 139.412 40.7693 140.221C41.7001 141.031 42.1655 142.108 42.1655 143.454C42.1655 144.11 42.0188 144.751 41.7256 145.376C41.4323 145.994 40.9478 146.673 40.272 147.413L37.7474 150.195H42.0316V153.169ZM45.5029 149.995H49.0603L46.1053 155.99H43.466L45.5029 149.995ZM54.0329 153.169V142.478H51.0302L52.675 139.303H57.5138V153.169H54.0329ZM62.3717 148.531H65.9196V148.761C65.9196 149.373 66.063 149.838 66.3499 150.157C66.6368 150.47 67.0607 150.626 67.6217 150.626C68.2083 150.626 68.6577 150.476 68.9701 150.176C69.2825 149.87 69.4387 149.43 69.4387 148.857C69.4387 148.213 69.2697 147.741 68.9319 147.441C68.6003 147.135 68.0776 146.982 67.3635 146.982C67.2488 146.982 67.1595 146.985 67.0958 146.992C67.0384 146.992 66.9842 146.992 66.9332 146.992V144.745H67.134C67.7779 144.745 68.272 144.604 68.6163 144.324C68.9605 144.043 69.1327 143.635 69.1327 143.1C69.1327 142.673 68.986 142.325 68.6928 142.057C68.4059 141.79 68.0361 141.656 67.5835 141.656C67.099 141.656 66.7228 141.786 66.4551 142.048C66.1873 142.309 66.0471 142.679 66.0343 143.157H62.6491C62.6746 141.85 63.1304 140.837 64.0166 140.116C64.9091 139.389 66.1554 139.026 67.7556 139.026C69.1837 139.026 70.3057 139.351 71.1217 140.001C71.9441 140.645 72.3553 141.522 72.3553 142.631C72.3553 143.339 72.1673 143.941 71.7911 144.439C71.415 144.929 70.8667 145.286 70.1463 145.51C71.0197 145.669 71.6987 146.051 72.1832 146.657C72.6677 147.256 72.91 148.025 72.91 148.962C72.91 150.32 72.4255 151.423 71.4564 152.271C70.4938 153.118 69.2347 153.542 67.6791 153.542C66.0471 153.542 64.7529 153.106 63.7966 152.232C62.8467 151.352 62.3717 150.164 62.3717 148.665V148.531ZM79.9196 144.553C80.4296 144.553 80.8344 144.41 81.134 144.123C81.4337 143.836 81.5835 143.444 81.5835 142.947C81.5835 142.449 81.4369 142.061 81.1436 141.78C80.8503 141.5 80.4423 141.359 79.9196 141.359C79.4095 141.359 79.0079 141.503 78.7146 141.79C78.4214 142.07 78.2748 142.456 78.2748 142.947C78.2748 143.438 78.4214 143.83 78.7146 144.123C79.0143 144.41 79.4159 144.553 79.9196 144.553ZM79.9196 150.74C80.5188 150.74 80.9906 150.575 81.3349 150.243C81.6855 149.912 81.8608 149.456 81.8608 148.876C81.8608 148.308 81.6855 147.862 81.3349 147.537C80.9906 147.205 80.5188 147.04 79.9196 147.04C79.3267 147.04 78.8581 147.205 78.5138 147.537C78.1696 147.862 77.9974 148.308 77.9974 148.876C77.9974 149.449 78.1696 149.905 78.5138 150.243C78.8645 150.575 79.333 150.74 79.9196 150.74ZM82.3868 145.691C83.2984 145.857 84.0061 146.259 84.5097 146.896C85.0134 147.527 85.2652 148.334 85.2652 149.316C85.2652 150.642 84.7934 151.678 83.8499 152.424C82.9127 153.169 81.6026 153.542 79.9196 153.542C78.2429 153.542 76.936 153.169 75.9988 152.424C75.0616 151.678 74.5931 150.642 74.5931 149.316C74.5931 148.334 74.8449 147.527 75.3485 146.896C75.8522 146.259 76.5598 145.857 77.4715 145.691C76.7319 145.513 76.1614 145.175 75.7597 144.678C75.3581 144.174 75.1573 143.552 75.1573 142.813C75.1573 141.621 75.5748 140.693 76.41 140.03C77.2515 139.361 78.4214 139.026 79.9196 139.026C81.4241 139.026 82.5972 139.361 83.4387 140.03C84.2802 140.699 84.701 141.627 84.701 142.813C84.701 143.552 84.5002 144.174 84.0985 144.678C83.6969 145.175 83.1263 145.513 82.3868 145.691ZM87.1873 151.601C87.1873 151.059 87.369 150.603 87.7324 150.234C88.1022 149.864 88.558 149.679 89.0999 149.679C89.6545 149.679 90.1167 149.864 90.4865 150.234C90.8563 150.603 91.0411 151.059 91.0411 151.601C91.0411 152.143 90.8531 152.602 90.4769 152.978C90.1072 153.354 89.6482 153.542 89.0999 153.542C88.5644 153.542 88.1117 153.354 87.742 152.978C87.3722 152.602 87.1873 152.143 87.1873 151.601ZM98.2802 144.553C98.7902 144.553 99.1951 144.41 99.4947 144.123C99.7943 143.836 99.9441 143.444 99.9441 142.947C99.9441 142.449 99.7975 142.061 99.5043 141.78C99.211 141.5 98.803 141.359 98.2802 141.359C97.7702 141.359 97.3686 141.503 97.0753 141.79C96.782 142.07 96.6354 142.456 96.6354 142.947C96.6354 143.438 96.782 143.83 97.0753 144.123C97.3749 144.41 97.7766 144.553 98.2802 144.553ZM98.2802 150.74C98.8795 150.74 99.3513 150.575 99.6955 150.243C100.046 149.912 100.221 149.456 100.221 148.876C100.221 148.308 100.046 147.862 99.6955 147.537C99.3513 147.205 98.8795 147.04 98.2802 147.04C97.6873 147.04 97.2187 147.205 96.8745 147.537C96.5302 147.862 96.3581 148.308 96.3581 148.876C96.3581 149.449 96.5302 149.905 96.8745 150.243C97.2251 150.575 97.6937 150.74 98.2802 150.74ZM100.747 145.691C101.659 145.857 102.367 146.259 102.87 146.896C103.374 147.527 103.626 148.334 103.626 149.316C103.626 150.642 103.154 151.678 102.211 152.424C101.273 153.169 99.9633 153.542 98.2802 153.542C96.6035 153.542 95.2966 153.169 94.3594 152.424C93.4223 151.678 92.9537 150.642 92.9537 149.316C92.9537 148.334 93.2055 147.527 93.7092 146.896C94.2128 146.259 94.9205 145.857 95.8321 145.691C95.0926 145.513 94.522 145.175 94.1204 144.678C93.7187 144.174 93.5179 143.552 93.5179 142.813C93.5179 141.621 93.9355 140.693 94.7706 140.03C95.6122 139.361 96.782 139.026 98.2802 139.026C99.7848 139.026 100.958 139.361 101.799 140.03C102.641 140.699 103.062 141.627 103.062 142.813C103.062 143.552 102.861 144.174 102.459 144.678C102.058 145.175 101.487 145.513 100.747 145.691ZM106.275 153.169L111.534 142.44H105.624V139.303H116.316V139.973L110.224 153.169H106.275Z" fill="white"/>
<rect x="18.7269" y="93.9072" width="63.7321" height="20.6701" rx="10.3351" fill="#08F0FF" fill-opacity="0.08"/>
<path d="M39.0603 101.929H39.9273V104.617H42.5488V105.463H39.9273V108.156H39.0603V105.463H36.4388V104.617H39.0603V101.929ZM49.6839 104.561C49.6839 105.747 49.4442 106.677 48.9648 107.35C48.4888 108.02 47.8326 108.355 46.9961 108.355C46.1495 108.355 45.4899 108.017 45.0173 107.34C44.548 106.66 44.3134 105.706 44.3134 104.479C44.3134 103.262 44.5514 102.313 45.0275 101.633C45.5035 100.953 46.1648 100.613 47.0114 100.613C47.8683 100.613 48.5279 100.955 48.9903 101.638C49.4527 102.318 49.6839 103.292 49.6839 104.561ZM46.9757 107.31C47.4722 107.31 47.8445 107.073 48.0927 106.601C48.3443 106.125 48.4701 105.414 48.4701 104.469C48.4701 103.551 48.346 102.852 48.0978 102.373C47.853 101.89 47.4943 101.648 47.0216 101.648C46.5286 101.648 46.1563 101.888 45.9047 102.368C45.6531 102.847 45.5273 103.554 45.5273 104.489C45.5273 105.397 45.6514 106.094 45.8996 106.58C46.1512 107.067 46.5099 107.31 46.9757 107.31ZM51.0661 107.59C51.0661 107.403 51.1307 107.243 51.2599 107.111C51.3891 106.978 51.5472 106.912 51.7342 106.912C51.9212 106.912 52.0793 106.978 52.2085 107.111C52.3377 107.243 52.4023 107.403 52.4023 107.59C52.4023 107.774 52.3377 107.93 52.2085 108.059C52.0793 108.185 51.9212 108.248 51.7342 108.248C51.5472 108.248 51.3891 108.185 51.2599 108.059C51.1307 107.93 51.0661 107.774 51.0661 107.59ZM55.2227 104.209C54.8521 104.049 54.5801 103.84 54.4067 103.581C54.2333 103.323 54.1466 103 54.1466 102.612C54.1466 102.014 54.3574 101.531 54.779 101.164C55.2006 100.797 55.7582 100.613 56.4519 100.613C57.1625 100.613 57.7269 100.8 58.1451 101.174C58.5633 101.545 58.7725 102.041 58.7725 102.663C58.7725 103.031 58.6807 103.347 58.497 103.612C58.3168 103.874 58.0499 104.073 57.6963 104.209C58.1111 104.345 58.4358 104.586 58.6705 104.933C58.9051 105.276 59.0224 105.683 59.0224 106.152C59.0224 106.839 58.7946 107.378 58.3389 107.769C57.8867 108.16 57.2577 108.355 56.4519 108.355C55.6596 108.355 55.0357 108.16 54.5801 107.769C54.1245 107.378 53.8967 106.846 53.8967 106.172C53.8967 105.683 54.0123 105.268 54.2435 104.928C54.4747 104.584 54.8011 104.345 55.2227 104.209ZM56.4774 101.597C56.1238 101.597 55.845 101.691 55.6409 101.878C55.4369 102.062 55.3349 102.313 55.3349 102.633C55.3349 102.946 55.4335 103.19 55.6307 103.367C55.8314 103.544 56.1051 103.632 56.4519 103.632C56.8089 103.632 57.086 103.546 57.2832 103.372C57.4838 103.195 57.5841 102.949 57.5841 102.633C57.5841 102.31 57.4855 102.056 57.2883 101.873C57.0911 101.689 56.8208 101.597 56.4774 101.597ZM56.4519 107.361C56.8905 107.361 57.2339 107.247 57.4821 107.019C57.7303 106.788 57.8544 106.47 57.8544 106.065C57.8544 105.657 57.7303 105.338 57.4821 105.106C57.2339 104.875 56.8905 104.76 56.4519 104.76C56.0235 104.76 55.6851 104.877 55.4369 105.111C55.1887 105.346 55.0646 105.664 55.0646 106.065C55.0646 106.47 55.187 106.788 55.4318 107.019C55.6766 107.247 56.0167 107.361 56.4519 107.361ZM65.9331 107.748C66.1881 107.748 66.3785 107.634 66.5043 107.407C66.6301 107.179 66.693 106.837 66.693 106.381C66.693 105.943 66.6284 105.608 66.4992 105.377C66.3734 105.142 66.1915 105.025 65.9535 105.025C65.7019 105.025 65.5115 105.14 65.3823 105.372C65.2565 105.599 65.1936 105.939 65.1936 106.392C65.1936 106.827 65.2565 107.162 65.3823 107.396C65.5115 107.631 65.6951 107.748 65.9331 107.748ZM64.2807 106.381C64.2807 105.763 64.4286 105.281 64.7244 104.938C65.0202 104.591 65.4299 104.418 65.9535 104.418C66.4805 104.418 66.8885 104.59 67.1776 104.933C67.47 105.273 67.6162 105.756 67.6162 106.381C67.6162 107 67.4683 107.485 67.1725 107.835C66.8766 108.182 66.4669 108.355 65.9433 108.355C65.4197 108.355 65.0117 108.182 64.7193 107.835C64.4269 107.488 64.2807 107.004 64.2807 106.381ZM59.9149 102.577C59.9149 101.961 60.0628 101.48 60.3586 101.133C60.6544 100.786 61.0641 100.613 61.5878 100.613C62.1148 100.613 62.5228 100.785 62.8118 101.128C63.1042 101.468 63.2504 101.951 63.2504 102.577C63.2504 103.199 63.1042 103.682 62.8118 104.025C62.5194 104.369 62.1114 104.54 61.5878 104.54C61.0607 104.54 60.6493 104.369 60.3535 104.025C60.0611 103.682 59.9149 103.199 59.9149 102.577ZM61.5776 103.949C61.8292 103.949 62.0162 103.835 62.1386 103.607C62.2644 103.379 62.3273 103.036 62.3273 102.577C62.3273 102.135 62.2644 101.796 62.1386 101.562C62.0128 101.327 61.8326 101.21 61.598 101.21C61.3463 101.21 61.1559 101.327 61.0267 101.562C60.9009 101.793 60.838 102.135 60.838 102.587C60.838 103.025 60.9009 103.362 61.0267 103.597C61.1559 103.831 61.3395 103.949 61.5776 103.949ZM61.9448 108.355H61.2409L65.5965 100.613H66.3003L61.9448 108.355Z" fill="#25F2FF"/>
<rect x="95.2054" y="93.9072" width="20.3943" height="20.3943" rx="10.1971" fill="#25F2FF"/>
<path d="M108.701 105.495C108.688 105.79 108.452 106.026 108.158 106.04C107.821 106.056 107.544 105.779 107.559 105.442L107.691 102.59L102.65 107.63C102.437 107.844 102.091 107.844 101.877 107.63C101.664 107.417 101.664 107.07 101.877 106.857L106.918 101.816L104.065 101.948C103.728 101.964 103.451 101.686 103.467 101.35C103.481 101.055 103.717 100.819 104.012 100.806L108.773 100.586C108.856 100.582 108.925 100.651 108.921 100.734L108.701 105.495Z" fill="#181936"/>
<path fill-rule="evenodd" clip-rule="evenodd" d="M52.9575 31.2572V31.0609C52.9113 31.0147 52.9182 30.9552 52.9268 30.8824C52.9281 30.8709 52.9295 30.859 52.9307 30.8467C52.9218 29.544 52.6896 28.2769 52.2788 27.0366C51.2428 23.9224 49.4656 21.3079 46.9649 19.1753C45.0448 17.5424 42.8568 16.4181 40.4276 15.7399C39.3201 15.4365 38.1949 15.3116 37.0517 15.2759C35.8461 15.2402 34.6404 15.2491 33.4347 15.3384C32.1398 15.4276 30.8984 15.8113 29.6927 16.2664C27.0135 17.2836 24.745 18.8987 22.8517 21.0224C21.4942 22.5482 20.4761 24.2972 19.7348 26.1978C19.3062 27.3221 18.9489 28.4821 18.8328 29.6778C18.7078 31.0163 18.7167 32.3547 18.7435 33.6932C18.7792 35.0763 19.0114 36.4058 19.4401 37.7086C20.0206 39.4843 20.878 41.1262 21.9765 42.6431C22.7267 43.6782 23.6108 44.5794 24.5575 45.4271C25.7899 46.5336 27.1921 47.3991 28.7014 48.0862C30.0767 48.7108 31.4967 49.1837 33.0061 49.3622C33.2091 49.3847 33.4122 49.3946 33.6152 49.4045C33.8944 49.4181 34.1736 49.4317 34.4528 49.4782H35.0512C35.1852 49.4247 35.3191 49.4247 35.4531 49.4782H36.0515C36.1854 49.4247 36.3194 49.4247 36.4534 49.4782H36.8552C36.9178 49.4336 36.9892 49.4336 37.0517 49.4782H37.2482C37.2913 49.4352 37.3471 49.4387 37.401 49.4422C37.4253 49.4438 37.4493 49.4453 37.4715 49.4425C37.6513 49.4295 37.832 49.4218 38.0127 49.4141C38.4511 49.3954 38.8901 49.3767 39.3201 49.2819C42.5442 48.5859 45.3752 47.1314 47.7687 44.8382C49.5192 43.1606 50.8588 41.2243 51.7876 39.0025C52.2966 37.7889 52.6896 36.5397 52.8414 35.228C52.8639 35.0254 52.8738 34.8213 52.8837 34.6176C52.8974 34.3367 52.9109 34.0566 52.9575 33.7824V33.4523C52.9129 33.3898 52.9129 33.3184 52.9575 33.256V32.792C52.9039 32.5243 52.9039 32.2566 52.9575 31.9889V31.6587C52.9145 31.6096 52.918 31.5521 52.9215 31.4948C52.923 31.4688 52.9246 31.4429 52.9218 31.4178C52.9245 31.4017 52.9247 31.3849 52.925 31.3679C52.9256 31.3284 52.9263 31.2884 52.9575 31.2572ZM31.1078 28.9232L31.1079 28.923C31.667 28.0822 32.2261 27.2414 32.7901 26.4005C33.0546 26.007 33.3196 25.6134 33.5847 25.2199L33.5856 25.2185C34.1164 24.4303 34.6473 23.6422 35.1737 22.854C35.2424 22.7502 35.3159 22.6562 35.4238 22.5919H35.6789V22.6254L35.6832 22.6255C35.7609 22.6543 35.8045 22.7175 35.8481 22.7807C35.8568 22.7934 35.8655 22.806 35.8745 22.8184L35.8775 22.8228C37.4999 25.2351 39.1224 27.6474 40.7497 30.0647C40.9557 30.3664 40.9116 30.5445 40.5878 30.7176C39.0037 31.5585 37.4146 32.3994 35.8304 33.2353C35.8166 33.2422 35.8031 33.2495 35.7896 33.2569C35.7354 33.2862 35.6813 33.3154 35.6146 33.3194L35.6058 33.3156L35.6097 33.3196C35.5018 33.3542 35.4086 33.3146 35.3105 33.2652C34.5013 32.8349 33.6909 32.4058 32.8805 31.9767L32.8799 31.9764L32.8781 31.9755C32.0683 31.5468 31.2586 31.1181 30.4501 30.6881C30.1852 30.5496 30.1362 30.3567 30.3029 30.1144C30.4603 29.8792 30.6195 29.644 30.7793 29.4077C30.8884 29.2465 30.9979 29.0848 31.1073 28.9223L31.1076 28.9327L31.1078 28.9232ZM35.6099 37.4733C37.0911 36.677 38.5674 35.8856 40.0485 35.0942C40.0701 35.0824 40.0921 35.0682 40.1143 35.0539C40.2132 34.9902 40.3181 34.9226 40.4262 35.0398C40.537 35.1595 40.4562 35.2535 40.3796 35.3425C40.3613 35.3638 40.3432 35.3848 40.3281 35.4058C39.297 36.7808 38.2634 38.1534 37.2292 39.527L37.2219 39.5366C36.7779 40.1264 36.3336 40.7163 35.8894 41.3067C35.879 41.3204 35.8692 41.3345 35.8595 41.3486C35.8236 41.4006 35.7883 41.4515 35.7227 41.4749L35.7192 41.4762C35.5178 41.5895 35.3868 41.5578 35.2319 41.3479L33.7017 39.315C33.5901 39.1678 33.4827 39.0203 33.3754 38.873L33.3754 38.873L33.3753 38.873L33.3294 38.81C33.0735 38.5052 32.8368 38.1866 32.6001 37.868C32.4604 37.6799 32.3207 37.4917 32.1769 37.3063C31.6864 36.6633 31.2008 36.0153 30.7153 35.3674C30.6908 35.3377 30.6712 35.308 30.6515 35.2783C30.5927 35.2041 30.5682 35.125 30.6368 35.0459C30.7055 34.9618 30.7987 34.9717 30.887 35.0162C31.1224 35.1398 31.3627 35.2684 31.5981 35.397C32.6428 35.956 33.6826 36.5149 34.7273 37.0788C34.7811 37.1084 34.8301 37.143 34.8791 37.1776L34.8788 37.1732C35.0259 37.2474 35.1731 37.3216 35.3153 37.4007C35.4058 37.4536 35.5009 37.4784 35.6051 37.4753L35.6099 37.4733ZM30.2873 32.319C30.217 32.2794 30.1451 32.2389 30.0627 32.2472C29.8715 32.2472 29.7341 32.3808 29.7292 32.5687C29.7243 32.7617 29.8518 32.8457 29.999 32.9249C31.7548 33.8498 33.5058 34.7748 35.2469 35.7047C35.448 35.8135 35.6098 35.8185 35.8109 35.7097C36.6055 35.2843 37.4 34.8638 38.1946 34.4434C39.1608 33.9339 40.1221 33.4245 41.0834 32.915C41.2011 32.8556 41.309 32.7864 41.3335 32.6429C41.358 32.5094 41.3286 32.3956 41.2207 32.3115C41.0834 32.2027 40.9412 32.2324 40.794 32.3115C39.9505 32.7616 39.1045 33.2105 38.2585 33.6593C37.4124 34.1082 36.5663 34.5571 35.7227 35.0073C35.5853 35.0815 35.4872 35.0815 35.3548 35.0073C33.6823 34.1169 32.005 33.2266 30.3276 32.3412C30.3142 32.3341 30.3008 32.3265 30.2873 32.319Z" fill="#25F2FF"/>
<path d="M64.5426 38.4722V27.2722H70.7928V28.8175H66.3633V31.6252H70.7928V33.2241H66.3633V36.8427H70.7928V38.4722H64.5426ZM76.4999 28.8175V38.4722H74.6792V28.8175H71.7032V27.2722H79.4606V28.8175H76.4999ZM80.853 38.4722V27.2722H82.6737V31.4033H88.1819V27.2722H90.0027V38.4722H88.1819V33.0328H82.6737V38.4722H80.853ZM96.7732 27.0197H98.0737L92.5885 39.9257H91.2879L96.7732 27.0197ZM99.3207 27.2722H101.119V34.0733C101.119 35.0831 101.351 35.843 101.815 36.353C102.284 36.858 102.983 37.1104 103.911 37.1104C104.834 37.1104 105.528 36.858 105.992 36.353C106.461 35.843 106.696 35.0831 106.696 34.0733V27.2722H108.516V34.2416C108.516 35.7563 108.134 36.8911 107.369 37.6459C106.604 38.3957 105.451 38.7705 103.911 38.7705C102.371 38.7705 101.221 38.3957 100.461 37.6459C99.7007 36.8962 99.3207 35.7614 99.3207 34.2416V27.2722ZM110.383 36.2306L111.837 35.5574C111.974 36.0572 112.227 36.4397 112.594 36.705C112.961 36.9651 113.43 37.0951 114.002 37.0951C114.542 37.0951 114.971 36.9447 115.287 36.6438C115.608 36.3428 115.769 35.9399 115.769 35.435C115.769 34.7771 115.223 34.1906 114.132 33.6754C113.979 33.5989 113.861 33.5428 113.78 33.5071C112.545 32.9053 111.722 32.3621 111.309 31.8776C110.901 31.388 110.697 30.7913 110.697 30.0875C110.697 29.1745 111.005 28.435 111.622 27.8689C112.245 27.3028 113.058 27.0197 114.063 27.0197C114.889 27.0197 115.58 27.1804 116.136 27.5017C116.692 27.8179 117.077 28.2744 117.291 28.8711L115.868 29.6055C115.644 29.2536 115.396 28.996 115.126 28.8328C114.861 28.6696 114.555 28.588 114.208 28.588C113.719 28.588 113.328 28.7155 113.038 28.9705C112.752 29.2255 112.609 29.5672 112.609 29.9957C112.609 30.6689 113.242 31.2962 114.507 31.8776C114.603 31.9235 114.68 31.9592 114.736 31.9847C115.843 32.4948 116.603 32.9946 117.016 33.4842C117.429 33.9687 117.635 34.5756 117.635 35.305C117.635 36.3658 117.301 37.2099 116.633 37.8372C115.965 38.4594 115.062 38.7705 113.925 38.7705C112.971 38.7705 112.188 38.5512 111.576 38.1126C110.97 37.674 110.572 37.0467 110.383 36.2306ZM121.445 36.8274H122.975C123.817 36.8274 124.447 36.7713 124.865 36.6591C125.288 36.5468 125.656 36.3581 125.967 36.0929C126.39 35.7308 126.706 35.282 126.915 34.7465C127.129 34.2059 127.237 33.5785 127.237 32.8645C127.237 32.1505 127.129 31.5257 126.915 30.9902C126.706 30.4496 126.39 29.9982 125.967 29.6361C125.65 29.3709 125.27 29.1822 124.827 29.07C124.388 28.9578 123.7 28.9017 122.761 28.9017H122.103H121.445V36.8274ZM119.625 38.4722V27.2722H122.08C123.677 27.2722 124.799 27.3538 125.446 27.517C126.099 27.6751 126.67 27.9428 127.16 28.3203C127.808 28.815 128.297 29.4499 128.629 30.2252C128.966 31.0004 129.134 31.8853 129.134 32.8798C129.134 33.8744 128.966 34.7567 128.629 35.5268C128.297 36.2918 127.808 36.9243 127.16 37.4241C126.67 37.8015 126.112 38.0718 125.485 38.235C124.862 38.3931 123.891 38.4722 122.57 38.4722H122.08H119.625ZM134.841 28.8175V38.4722H133.02V28.8175H130.044V27.2722H137.802V28.8175H134.841Z" fill="white"/>
<path d="M158.243 109.939C158.243 109.939 159.495 105.825 160.897 99.7863C161.825 95.7901 162.753 91.4943 165.845 88.7985C169.541 85.5769 174.398 85.4969 179.716 89.2646C181.406 90.4616 182.623 92.1846 183.993 93.737C187.608 97.8312 193.527 100.012 200.073 84.2093C200.9 82.2144 201.418 80.0944 201.823 77.9735C203.183 70.8628 205.995 61.3496 214.717 66.4575C219.588 69.3099 223.125 77.0914 228.201 74.6228C231.573 72.9828 236 67.9208 241.375 56.4531" stroke="#25F2FF" stroke-width="2.44508"/>
<circle cx="260.018" cy="37.441" r="1.22254" transform="rotate(180 260.018 37.441)" fill="white"/>
<circle cx="260.018" cy="32.5519" r="1.22254" transform="rotate(180 260.018 32.5519)" fill="white"/>
<circle cx="260.018" cy="27.6588" r="1.22254" transform="rotate(180 260.018 27.6588)" fill="white"/>
<defs>
<filter id="filter0_b_205_3783" x="-8.23455" y="-7.9616" width="297.373" height="188.757" filterUnits="userSpaceOnUse" color-interpolation-filters="sRGB">
<feFlood flood-opacity="0" result="BackgroundImageFix"/>
<feGaussianBlur in="BackgroundImageFix" stdDeviation="4.11728"/>
<feComposite in2="SourceAlpha" operator="in" result="effect1_backgroundBlur_205_3783"/>
<feBlend mode="normal" in="SourceGraphic" in2="effect1_backgroundBlur_205_3783" result="shape"/>
</filter>
<linearGradient id="paint0_linear_205_3783" x1="272.662" y1="166.016" x2="183.504" y2="54.0999" gradientUnits="userSpaceOnUse">
<stop stop-color="#00D1FF"/>
<stop offset="1" stop-color="#00D1FF" stop-opacity="0"/>
</linearGradient>
<linearGradient id="paint1_linear_205_3783" x1="-1.54343" y1="-0.159539" x2="97.0288" y2="127.287" gradientUnits="userSpaceOnUse">
<stop stop-color="#15BFFD"/>
<stop offset="1" stop-color="#00D1FF" stop-opacity="0"/>
</linearGradient>
</defs>
</svg>
