<svg width="281" height="172" viewBox="0 0 281 172" fill="none" xmlns="http://www.w3.org/2000/svg">
<g filter="url(#filter0_b_205_3734)">
<rect y="0.449219" width="280.904" height="171.351" rx="10.4803" fill="white" fill-opacity="0.04"/>
<rect x="0.673553" y="1.12277" width="279.557" height="170.004" rx="9.80678" stroke="url(#paint0_linear_205_3734)" stroke-width="1.34711"/>
<rect x="0.673553" y="1.12277" width="279.557" height="170.004" rx="9.80678" stroke="url(#paint1_linear_205_3734)" stroke-width="1.34711"/>
</g>
<path d="M21.0029 148.804C21.5512 149.441 22.1058 149.92 22.6668 150.238C23.2342 150.551 23.8144 150.707 24.4073 150.707C24.8854 150.707 25.2807 150.57 25.593 150.296C25.9118 150.015 26.0712 149.668 26.0712 149.253C26.0712 148.801 25.9373 148.453 25.6696 148.211C25.4082 147.962 24.8057 147.71 23.8622 147.455C22.4277 147.06 21.4205 146.569 20.8403 145.983C20.2665 145.39 19.9797 144.58 19.9797 143.554C19.9797 142.292 20.3749 141.268 21.1655 140.484C21.9624 139.7 23.0748 139.235 24.5029 139.088V137.759H25.7365L25.7461 139.069C26.3007 139.126 26.8458 139.257 27.3813 139.461C27.9168 139.659 28.446 139.933 28.9687 140.283L27.7543 143.009C27.3271 142.645 26.8872 142.371 26.4346 142.186C25.9819 142.001 25.5293 141.909 25.0767 141.909C24.6176 141.909 24.2479 142.017 23.9674 142.234C23.6869 142.445 23.5466 142.722 23.5466 143.066C23.5466 143.417 23.6709 143.697 23.9196 143.908C24.1682 144.118 24.6559 144.319 25.3827 144.51L25.507 144.548C27.0753 144.969 28.1049 145.435 28.5958 145.945C28.9273 146.289 29.1791 146.7 29.3512 147.178C29.5298 147.656 29.619 148.185 29.619 148.766C29.619 150.092 29.2174 151.191 28.4141 152.065C27.6108 152.938 26.5366 153.445 25.1914 153.585V155.909H23.9578V153.624C23.0525 153.611 22.2206 153.442 21.4619 153.117C20.7032 152.792 19.9733 152.288 19.272 151.606L21.0029 148.804ZM37.91 148.708H41.4578V148.938C41.4578 149.55 41.6012 150.015 41.8881 150.334C42.175 150.646 42.599 150.802 43.16 150.802C43.7465 150.802 44.196 150.653 44.5084 150.353C44.8207 150.047 44.9769 149.607 44.9769 149.033C44.9769 148.389 44.808 147.918 44.4701 147.618C44.1386 147.312 43.6158 147.159 42.9018 147.159C42.787 147.159 42.6978 147.162 42.634 147.169C42.5767 147.169 42.5225 147.169 42.4715 147.169V144.921H42.6723C43.3162 144.921 43.8103 144.781 44.1545 144.501C44.4988 144.22 44.6709 143.812 44.6709 143.277C44.6709 142.849 44.5243 142.502 44.231 142.234C43.9441 141.966 43.5744 141.833 43.1217 141.833C42.6372 141.833 42.2611 141.963 41.9933 142.225C41.7256 142.486 41.5853 142.856 41.5726 143.334H38.1873C38.2128 142.027 38.6686 141.013 39.5548 140.293C40.4473 139.566 41.6937 139.203 43.2939 139.203C44.7219 139.203 45.844 139.528 46.66 140.178C47.4824 140.822 47.8936 141.699 47.8936 142.808C47.8936 143.516 47.7055 144.118 47.3294 144.615C46.9533 145.106 46.405 145.463 45.6846 145.686C46.558 145.846 47.237 146.228 47.7215 146.834C48.206 147.433 48.4482 148.201 48.4482 149.139C48.4482 150.496 47.9637 151.599 46.9947 152.447C46.032 153.295 44.7729 153.719 43.2174 153.719C41.5853 153.719 40.2911 153.282 39.3349 152.409C38.3849 151.529 37.91 150.34 37.91 148.842V148.708ZM56.242 147.455V143.382C56.242 143.006 56.2483 142.693 56.2611 142.445C56.2802 142.19 56.3057 141.973 56.3376 141.794C56.2165 142.068 56.0794 142.343 55.9264 142.617C55.7798 142.891 55.5981 143.197 55.3813 143.535L52.8089 147.455H56.242ZM56.242 153.346V150.21H49.8731V147.455L55.0849 139.423H59.4359V147.455H60.9851V150.21H59.4359V153.346H56.242ZM62.7256 151.778C62.7256 151.236 62.9073 150.78 63.2706 150.41C63.6404 150.041 64.0962 149.856 64.6381 149.856C65.1928 149.856 65.655 150.041 66.0247 150.41C66.3945 150.78 66.5794 151.236 66.5794 151.778C66.5794 152.32 66.3913 152.779 66.0152 153.155C65.6454 153.531 65.1864 153.719 64.6381 153.719C64.1026 153.719 63.65 153.531 63.2802 153.155C62.9104 152.779 62.7256 152.32 62.7256 151.778ZM73.8185 144.73C74.3285 144.73 74.7333 144.587 75.0329 144.3C75.3326 144.013 75.4824 143.621 75.4824 143.124C75.4824 142.626 75.3358 142.237 75.0425 141.957C74.7492 141.676 74.3412 141.536 73.8185 141.536C73.3084 141.536 72.9068 141.68 72.6135 141.966C72.3203 142.247 72.1737 142.633 72.1737 143.124C72.1737 143.614 72.3203 144.006 72.6135 144.3C72.9132 144.587 73.3148 144.73 73.8185 144.73ZM73.8185 150.917C74.4177 150.917 74.8895 150.751 75.2338 150.42C75.5844 150.088 75.7597 149.633 75.7597 149.052C75.7597 148.485 75.5844 148.039 75.2338 147.714C74.8895 147.382 74.4177 147.216 73.8185 147.216C73.2256 147.216 72.757 147.382 72.4127 147.714C72.0685 148.039 71.8963 148.485 71.8963 149.052C71.8963 149.626 72.0685 150.082 72.4127 150.42C72.7634 150.751 73.2319 150.917 73.8185 150.917ZM76.2857 145.868C77.1973 146.034 77.905 146.435 78.4086 147.073C78.9123 147.704 79.1641 148.511 79.1641 149.492C79.1641 150.818 78.6923 151.854 77.7488 152.6C76.8116 153.346 75.5015 153.719 73.8185 153.719C72.1418 153.719 70.8349 153.346 69.8977 152.6C68.9605 151.854 68.492 150.818 68.492 149.492C68.492 148.511 68.7438 147.704 69.2474 147.073C69.7511 146.435 70.4587 146.034 71.3704 145.868C70.6309 145.69 70.0603 145.352 69.6586 144.854C69.257 144.351 69.0562 143.729 69.0562 142.99C69.0562 141.797 69.4737 140.87 70.3089 140.207C71.1504 139.537 72.3203 139.203 73.8185 139.203C75.323 139.203 76.4961 139.537 77.3376 140.207C78.1791 140.876 78.5999 141.804 78.5999 142.99C78.5999 143.729 78.3991 144.351 77.9974 144.854C77.5958 145.352 77.0252 145.69 76.2857 145.868ZM90.41 139.48V142.339H85.1026L84.8253 144.137C85.1122 144.073 85.3991 144.026 85.686 143.994C85.9792 143.962 86.2661 143.946 86.5466 143.946C87.9683 143.946 89.0903 144.373 89.9127 145.227C90.7351 146.075 91.1463 147.229 91.1463 148.689C91.1463 150.245 90.6331 151.472 89.6067 152.371C88.5867 153.27 87.1873 153.719 85.4086 153.719C84.5607 153.719 83.7702 153.624 83.037 153.432C82.3039 153.241 81.66 152.964 81.1053 152.6L81.354 149.215L81.6504 149.272C81.9947 149.789 82.4537 150.197 83.0275 150.496C83.6013 150.79 84.2196 150.936 84.8827 150.936C85.7688 150.936 86.4542 150.726 86.9387 150.305C87.4232 149.878 87.6655 149.279 87.6655 148.507C87.6655 147.768 87.4041 147.162 86.8813 146.69C86.3585 146.219 85.6796 145.983 84.8444 145.983C84.2834 145.983 83.7766 146.078 83.3239 146.27C82.8713 146.455 82.4633 146.738 82.0999 147.121L81.6313 146.843L82.7884 139.48H90.41ZM103.607 146.585C103.607 148.804 103.135 150.547 102.191 151.816C101.254 153.085 99.9633 153.719 98.3185 153.719C96.6737 153.719 95.3763 153.075 94.4264 151.787C93.4829 150.493 93.0111 148.715 93.0111 146.451C93.0111 144.195 93.4829 142.422 94.4264 141.134C95.3763 139.847 96.6737 139.203 98.3185 139.203C99.9888 139.203 101.286 139.85 102.211 141.144C103.141 142.432 103.607 144.246 103.607 146.585ZM96.5398 146.451C96.5398 147.981 96.68 149.1 96.9605 149.808C97.2474 150.509 97.7001 150.86 98.3185 150.86C98.9241 150.86 99.3672 150.506 99.6477 149.798C99.9346 149.091 100.078 147.975 100.078 146.451C100.078 144.94 99.9346 143.828 99.6477 143.114C99.3672 142.4 98.9241 142.043 98.3185 142.043C97.6937 142.043 97.2411 142.394 96.9605 143.095C96.68 143.79 96.5398 144.909 96.5398 146.451ZM106.724 150.171H110.282L107.327 156.167H104.687L106.724 150.171ZM115.254 153.346V142.655H112.252L113.896 139.48H118.735V153.346H115.254ZM134.208 146.585C134.208 148.804 133.736 150.547 132.793 151.816C131.855 153.085 130.564 153.719 128.92 153.719C127.275 153.719 125.977 153.075 125.027 151.787C124.084 150.493 123.612 148.715 123.612 146.451C123.612 144.195 124.084 142.422 125.027 141.134C125.977 139.847 127.275 139.203 128.92 139.203C130.59 139.203 131.887 139.85 132.812 141.144C133.742 142.432 134.208 144.246 134.208 146.585ZM127.141 146.451C127.141 147.981 127.281 149.1 127.562 149.808C127.849 150.509 128.301 150.86 128.92 150.86C129.525 150.86 129.968 150.506 130.249 149.798C130.536 149.091 130.679 147.975 130.679 146.451C130.679 144.94 130.536 143.828 130.249 143.114C129.968 142.4 129.525 142.043 128.92 142.043C128.295 142.043 127.842 142.394 127.562 143.095C127.281 143.79 127.141 144.909 127.141 146.451Z" fill="white"/>
<rect x="18.7269" y="94.084" width="63.7321" height="20.6701" rx="10.3351" fill="#08F0FF" fill-opacity="0.08"/>
<path d="M39.0603 102.106H39.9273V104.793H42.5488V105.64H39.9273V108.333H39.0603V105.64H36.4388V104.793H39.0603V102.106ZM49.6839 104.737C49.6839 105.924 49.4442 106.854 48.9648 107.527C48.4888 108.197 47.8326 108.532 46.9961 108.532C46.1495 108.532 45.4899 108.194 45.0173 107.517C44.548 106.837 44.3134 105.883 44.3134 104.656C44.3134 103.439 44.5514 102.49 45.0275 101.81C45.5035 101.13 46.1648 100.79 47.0114 100.79C47.8683 100.79 48.5279 101.132 48.9903 101.815C49.4527 102.495 49.6839 103.469 49.6839 104.737ZM46.9757 107.486C47.4722 107.486 47.8445 107.25 48.0927 106.777C48.3443 106.301 48.4701 105.591 48.4701 104.646C48.4701 103.728 48.346 103.029 48.0978 102.549C47.853 102.067 47.4943 101.825 47.0216 101.825C46.5286 101.825 46.1563 102.065 45.9047 102.544C45.6531 103.024 45.5273 103.731 45.5273 104.666C45.5273 105.574 45.6514 106.271 45.8996 106.757C46.1512 107.243 46.5099 107.486 46.9757 107.486ZM51.0661 107.767C51.0661 107.58 51.1307 107.42 51.2599 107.287C51.3891 107.155 51.5472 107.089 51.7342 107.089C51.9212 107.089 52.0793 107.155 52.2085 107.287C52.3377 107.42 52.4023 107.58 52.4023 107.767C52.4023 107.95 52.3377 108.107 52.2085 108.236C52.0793 108.362 51.9212 108.425 51.7342 108.425C51.5472 108.425 51.3891 108.362 51.2599 108.236C51.1307 108.107 51.0661 107.95 51.0661 107.767ZM55.2227 104.385C54.8521 104.226 54.5801 104.017 54.4067 103.758C54.2333 103.5 54.1466 103.177 54.1466 102.789C54.1466 102.191 54.3574 101.708 54.779 101.341C55.2006 100.973 55.7582 100.79 56.4519 100.79C57.1625 100.79 57.7269 100.977 58.1451 101.351C58.5633 101.721 58.7725 102.218 58.7725 102.84C58.7725 103.207 58.6807 103.524 58.497 103.789C58.3168 104.051 58.0499 104.249 57.6963 104.385C58.1111 104.521 58.4358 104.763 58.6705 105.11C58.9051 105.453 59.0224 105.859 59.0224 106.329C59.0224 107.015 58.7946 107.554 58.3389 107.945C57.8867 108.336 57.2577 108.532 56.4519 108.532C55.6596 108.532 55.0357 108.336 54.5801 107.945C54.1245 107.554 53.8967 107.022 53.8967 106.349C53.8967 105.859 54.0123 105.445 54.2435 105.105C54.4747 104.761 54.8011 104.521 55.2227 104.385ZM56.4774 101.774C56.1238 101.774 55.845 101.868 55.6409 102.055C55.4369 102.238 55.3349 102.49 55.3349 102.81C55.3349 103.122 55.4335 103.367 55.6307 103.544C55.8314 103.721 56.1051 103.809 56.4519 103.809C56.8089 103.809 57.086 103.722 57.2832 103.549C57.4838 103.372 57.5841 103.126 57.5841 102.81C57.5841 102.486 57.4855 102.233 57.2883 102.05C57.0911 101.866 56.8208 101.774 56.4774 101.774ZM56.4519 107.537C56.8905 107.537 57.2339 107.423 57.4821 107.196C57.7303 106.964 57.8544 106.647 57.8544 106.242C57.8544 105.834 57.7303 105.514 57.4821 105.283C57.2339 105.052 56.8905 104.936 56.4519 104.936C56.0235 104.936 55.6851 105.054 55.4369 105.288C55.1887 105.523 55.0646 105.841 55.0646 106.242C55.0646 106.647 55.187 106.964 55.4318 107.196C55.6766 107.423 56.0167 107.537 56.4519 107.537ZM65.9331 107.925C66.1881 107.925 66.3785 107.811 66.5043 107.583C66.6301 107.355 66.693 107.014 66.693 106.558C66.693 106.12 66.6284 105.785 66.4992 105.553C66.3734 105.319 66.1915 105.201 65.9535 105.201C65.7019 105.201 65.5115 105.317 65.3823 105.548C65.2565 105.776 65.1936 106.116 65.1936 106.568C65.1936 107.004 65.2565 107.338 65.3823 107.573C65.5115 107.808 65.6951 107.925 65.9331 107.925ZM64.2807 106.558C64.2807 105.939 64.4286 105.458 64.7244 105.115C65.0202 104.768 65.4299 104.595 65.9535 104.595C66.4805 104.595 66.8885 104.766 67.1776 105.11C67.47 105.45 67.6162 105.933 67.6162 106.558C67.6162 107.177 67.4683 107.661 67.1725 108.012C66.8766 108.359 66.4669 108.532 65.9433 108.532C65.4197 108.532 65.0117 108.359 64.7193 108.012C64.4269 107.665 64.2807 107.18 64.2807 106.558ZM59.9149 102.753C59.9149 102.138 60.0628 101.657 60.3586 101.31C60.6544 100.963 61.0641 100.79 61.5878 100.79C62.1148 100.79 62.5228 100.962 62.8118 101.305C63.1042 101.645 63.2504 102.128 63.2504 102.753C63.2504 103.376 63.1042 103.858 62.8118 104.202C62.5194 104.545 62.1114 104.717 61.5878 104.717C61.0607 104.717 60.6493 104.545 60.3535 104.202C60.0611 103.858 59.9149 103.376 59.9149 102.753ZM61.5776 104.125C61.8292 104.125 62.0162 104.011 62.1386 103.784C62.2644 103.556 62.3273 103.212 62.3273 102.753C62.3273 102.311 62.2644 101.973 62.1386 101.738C62.0128 101.504 61.8326 101.387 61.598 101.387C61.3463 101.387 61.1559 101.504 61.0267 101.738C60.9009 101.97 60.838 102.311 60.838 102.764C60.838 103.202 60.9009 103.539 61.0267 103.773C61.1559 104.008 61.3395 104.125 61.5776 104.125ZM61.9448 108.532H61.2409L65.5965 100.79H66.3003L61.9448 108.532Z" fill="#25F2FF"/>
<rect x="95.2054" y="94.084" width="20.3943" height="20.3943" rx="10.1971" fill="#25F2FF"/>
<path d="M108.701 105.672C108.688 105.966 108.452 106.202 108.157 106.217C107.821 106.233 107.543 105.956 107.559 105.619L107.691 102.766L102.65 107.807C102.437 108.02 102.09 108.02 101.877 107.807C101.663 107.593 101.663 107.247 101.877 107.034L106.917 101.993L104.065 102.125C103.728 102.14 103.451 101.863 103.467 101.526C103.481 101.232 103.717 100.996 104.012 100.982L108.773 100.763C108.856 100.759 108.925 100.827 108.921 100.911L108.701 105.672Z" fill="#181936"/>
<path d="M167.606 103.457C170.376 106.251 175.086 108.487 182.565 90.0432C186.311 82.4849 192.76 80.378 200.083 85.5657C201.773 86.7627 202.989 88.4858 204.36 90.0381C207.975 94.1324 213.894 96.3128 220.44 80.5104C221.266 78.5155 221.784 76.3955 222.19 74.2746C223.841 65.6359 227.637 53.4512 241.57 68.246" stroke="#25F2FF" stroke-width="2.44508"/>
<path fill-rule="evenodd" clip-rule="evenodd" d="M52.9391 31.5505C52.9308 31.5212 52.9225 31.4918 52.9209 31.4621C52.9194 31.4348 52.9229 31.4048 52.9268 31.3722C52.9281 31.3606 52.9295 31.3487 52.9307 31.3365C52.9218 30.0337 52.6896 28.7666 52.2788 27.5263C51.2428 24.4121 49.4656 21.7977 46.9649 19.665C45.0448 18.0321 42.8568 16.9078 40.4276 16.2296C39.3201 15.9263 38.1949 15.8013 37.0517 15.7656C35.8461 15.73 34.6404 15.7389 33.4347 15.8281C32.1398 15.9173 30.8984 16.301 29.6927 16.7561C27.0135 17.7733 24.745 19.3884 22.8517 21.5121C21.4942 23.038 20.4761 24.7869 19.7348 26.6875C19.3062 27.8119 18.9489 28.9719 18.8328 30.1676C18.7078 31.506 18.7167 32.8445 18.7435 34.183C18.7792 35.566 19.0114 36.8956 19.4401 38.1984C20.0206 39.9741 20.878 41.6159 21.9765 43.1328C22.7267 44.1679 23.6108 45.0692 24.5575 45.9169C25.7899 47.0233 27.1921 47.8889 28.7014 48.5759C30.0767 49.2006 31.4967 49.6735 33.0061 49.852C33.2091 49.8745 33.4122 49.8844 33.6152 49.8943C33.8351 49.905 34.055 49.9157 34.2748 49.9424C34.3936 49.9569 34.513 49.9679 34.6327 49.9679H34.845C34.9131 49.9679 34.9809 49.9579 35.0486 49.9479C35.1163 49.9378 35.1841 49.9278 35.2522 49.9278C35.3203 49.9278 35.388 49.9378 35.4557 49.9479C35.5234 49.9579 35.5912 49.9679 35.6593 49.9679H35.8453C35.9134 49.9679 35.9811 49.9579 36.0489 49.9479C36.1166 49.9378 36.1843 49.9278 36.2524 49.9278C36.2708 49.9278 36.2892 49.9288 36.3076 49.9308C36.3442 49.9348 36.3807 49.941 36.4171 49.9471C36.4793 49.9575 36.5414 49.9679 36.6042 49.9679H36.7498C36.7841 49.9679 36.8178 49.9596 36.8516 49.9512C36.8854 49.9429 36.9192 49.9345 36.9535 49.9345C36.9601 49.9345 36.9666 49.9349 36.9732 49.9358C36.9962 49.9388 37.0188 49.9449 37.0413 49.9509C37.073 49.9595 37.1046 49.9679 37.1371 49.9679C37.1734 49.9679 37.2095 49.9585 37.2456 49.949C37.2801 49.94 37.3146 49.9309 37.3492 49.9301C37.3664 49.9297 37.3838 49.9308 37.401 49.9319C37.4253 49.9335 37.4493 49.935 37.4715 49.9323C37.6513 49.9192 37.832 49.9115 38.0127 49.9038C38.4511 49.8851 38.8901 49.8664 39.3201 49.7716C42.5442 49.0756 45.3752 47.6212 47.7687 45.3279C49.5192 43.6504 50.8588 41.7141 51.7876 39.4922C52.2966 38.2787 52.6896 37.0294 52.8414 35.7177C52.8639 35.5152 52.8738 35.311 52.8837 35.1073C52.8962 34.8496 52.9087 34.5925 52.9467 34.3401C52.9535 34.2948 52.9575 34.2492 52.9575 34.2034V34.0474C52.9575 34.0132 52.9492 33.9794 52.9408 33.9457C52.9324 33.9119 52.924 33.8782 52.924 33.8439C52.924 33.8096 52.9324 33.7758 52.9408 33.7421C52.9492 33.7083 52.9575 33.6746 52.9575 33.6403V33.3913C52.9575 33.3184 52.9494 33.2459 52.9388 33.1738C52.9082 32.9647 52.9103 32.7555 52.9451 32.5464C52.9526 32.5012 52.9575 32.4556 52.9575 32.4098V32.3311C52.9575 32.2766 52.9485 32.2215 52.9394 32.1663C52.9289 32.1022 52.9184 32.0381 52.922 31.9749C52.9225 31.9666 52.9229 31.9582 52.9232 31.9499C52.9239 31.9218 52.9244 31.8934 52.9249 31.8653C52.925 31.8589 52.9251 31.8525 52.9252 31.8461C52.9253 31.8431 52.9254 31.8401 52.9255 31.8371C52.9267 31.807 52.9341 31.7771 52.9414 31.7471C52.9495 31.7143 52.9575 31.6816 52.9575 31.6488C52.9575 31.6157 52.9483 31.5831 52.9391 31.5505ZM42.5245 32.3427C42.0732 32.0387 41.5743 31.8675 40.9845 31.7022C41.6687 31.288 42.1503 30.8079 42.3987 30.1132C43.0429 28.3424 42.2346 26.4989 40.507 25.7794C39.7698 25.4781 38.9982 25.3245 38.2066 25.2687C37.9138 25.2456 37.7935 25.1762 37.7966 24.8428C37.8076 24.359 37.7955 23.8719 37.7835 23.3846L37.7835 23.3846C37.7749 23.0386 37.7663 22.6926 37.766 22.3475C37.7623 22.1268 37.726 22.0257 37.4729 22.0473C37.0099 22.079 36.5399 22.0848 36.0739 22.0711C35.8507 22.0663 35.8174 22.1491 35.8228 22.3417C35.8311 22.6833 35.8362 23.0243 35.8413 23.365V23.3651L35.8413 23.3652V23.3653C35.8486 23.8574 35.8559 24.3488 35.873 24.8409C35.8836 25.0875 35.8337 25.2117 35.5604 25.1926C35.2785 25.1757 34.9863 25.1894 34.6987 25.2202C34.4111 25.2511 34.3144 25.1662 34.3181 24.8695C34.3189 24.4583 34.3104 24.0471 34.3019 23.636C34.2935 23.2249 34.285 22.8137 34.2858 22.4025C34.2861 22.1622 34.2049 22.1008 33.9777 22.1155C33.532 22.1425 33.0879 22.1415 32.6438 22.1404H32.6438C32.4315 22.1418 32.324 22.1891 32.3346 22.4357C32.3494 22.8705 32.3566 23.3028 32.3637 23.735C32.3709 24.1673 32.3781 24.5995 32.3929 25.0344C32.3966 25.2551 32.3547 25.3402 32.1056 25.3423C31.574 25.3472 31.0441 25.358 30.5152 25.3689H30.5151L30.5151 25.3689L30.5151 25.3689C29.9427 25.3806 29.3715 25.3923 28.8008 25.3964C28.5604 25.3962 28.4793 25.4733 28.4899 25.7199C28.5157 26.2303 28.5243 26.7453 28.5219 27.254C28.525 27.438 28.582 27.4781 28.7551 27.4687C28.8257 27.4668 28.8963 27.4648 28.9668 27.4627L28.9676 27.4627C29.3551 27.4513 29.7405 27.44 30.1219 27.4627C30.7029 27.4918 31.0559 27.8776 31.0657 28.4662C31.0898 29.8501 31.1133 31.2317 31.1368 32.6134L31.1368 32.6137C31.1603 33.9953 31.1838 35.3769 31.2079 36.7607C31.216 37.3775 30.9815 37.6066 30.3689 37.6321C30.2922 37.6339 30.2151 37.6363 30.1379 37.6387H30.1378L30.1376 37.6387H30.1376H30.1376C29.8724 37.6468 29.6043 37.6549 29.3357 37.6411C29.1298 37.6316 29.066 37.7041 29.0432 37.895L29.0432 37.895C28.9684 38.4786 28.8936 39.0621 28.7797 39.6376C28.7196 39.9309 28.8197 39.9595 29.0774 39.9551C29.6242 39.9425 30.1678 39.9355 30.7115 39.9284H30.7115C31.2551 39.9213 31.7986 39.9142 32.3454 39.9016C32.564 39.8893 32.6491 39.9311 32.6511 40.18C32.6497 40.6794 32.6606 41.1813 32.6715 41.6825C32.68 42.072 32.6885 42.4611 32.6911 42.8483C32.6879 43.0431 32.7455 43.1201 32.9554 43.11C33.4122 43.0892 33.8712 43.0771 34.3262 43.0845C34.569 43.0934 34.65 43.0162 34.6394 42.7696C34.624 42.3175 34.6163 41.8658 34.6085 41.4153L34.6085 41.4152L34.6085 41.4151C34.6013 40.9991 34.5942 40.5842 34.5811 40.1709C34.5711 39.9611 34.6326 39.88 34.8581 39.8935C35.1682 39.912 35.4799 39.9024 35.7894 39.8841C36.0362 39.8734 36.1409 39.9193 36.1349 40.2073C36.1316 40.7008 36.1411 41.1941 36.1505 41.6887C36.1572 42.0381 36.1639 42.3881 36.1661 42.7393C36.1635 42.971 36.2021 43.0807 36.4725 43.0545C36.9246 43.0164 37.3773 43.0152 37.8346 43.0313C38.0774 43.0401 38.1107 42.9573 38.1093 42.7452C38.1006 42.3817 38.0956 42.0204 38.0907 41.6597V41.6596V41.6595C38.0838 41.1549 38.0769 40.6513 38.0596 40.1442C38.0576 39.8953 38.1059 39.7992 38.3785 39.7816C39.1683 39.727 39.9505 39.6098 40.7113 39.3782C41.9184 39.0178 42.9286 38.4054 43.452 37.1843C43.7292 36.528 43.8217 35.8381 43.8164 35.1282C43.8021 34.005 43.502 33.0231 42.5245 32.3427ZM34.9524 37.5645C35.9834 37.552 37.0248 37.5392 38.1899 37.2446C38.4165 37.1931 38.7868 37.0569 39.145 36.8408C40.2747 36.1224 40.2726 34.5618 39.13 33.8518C38.8082 33.6516 38.4532 33.5343 38.0792 33.4497C36.9913 33.2117 35.8917 33.2558 34.7896 33.3001L34.6931 33.3039C34.5654 33.3104 34.5229 33.3588 34.5293 33.4864C34.553 34.7826 34.5767 36.0788 34.5918 37.3773C34.5943 37.5244 34.6426 37.5669 34.7813 37.5667L34.9524 37.5645ZM37.2599 31.1206C36.4469 31.3474 35.6101 31.3571 34.7746 31.3669L34.6819 31.368C34.515 31.3665 34.473 31.3131 34.4769 31.155C34.4665 30.0123 34.4476 28.8719 34.42 27.7338C34.4136 27.6061 34.425 27.5107 34.5809 27.5059C34.6846 27.5028 34.7884 27.4993 34.8921 27.4958C35.8334 27.4641 36.7702 27.4324 37.6846 27.7366C38.4971 28.0085 38.9394 28.5551 38.9712 29.2949C39.0019 30.0996 38.5785 30.6934 37.7453 30.9998C37.6622 31.022 37.5786 31.0421 37.4961 31.0619C37.4157 31.0811 37.3365 31.1001 37.2599 31.1206Z" fill="#25F2FF"/>
<path d="M66.3251 32.4898H67.0213C67.8883 32.4898 68.5003 32.3725 68.8573 32.1379C69.2194 31.8982 69.4005 31.4978 69.4005 30.9368C69.4005 30.3248 69.2347 29.8963 68.9032 29.6515C68.5717 29.4016 67.9444 29.2767 67.0213 29.2767H66.3251V32.4898ZM66.3251 37.4395H66.9524C67.5899 37.4395 68.0668 37.414 68.383 37.363C68.6992 37.312 68.9491 37.2228 69.1327 37.0952C69.3571 36.9473 69.5305 36.7484 69.653 36.4985C69.7754 36.2486 69.8366 35.9732 69.8366 35.6723C69.8366 35.3153 69.7626 35.0042 69.6147 34.739C69.4668 34.4738 69.2551 34.2672 68.9797 34.1193C68.8063 34.0326 68.6074 33.9688 68.383 33.928C68.1637 33.8872 67.8704 33.8668 67.5032 33.8668H66.9524H66.3251V37.4395ZM64.5426 38.9619V27.7619H67.3655C68.1713 27.7619 68.7655 27.8053 69.148 27.892C69.5356 27.9787 69.8646 28.1215 70.1349 28.3204C70.4817 28.5754 70.7495 28.9095 70.9382 29.3226C71.132 29.7357 71.2289 30.1922 71.2289 30.692C71.2289 31.2887 71.0912 31.7885 70.8158 32.1914C70.5404 32.5892 70.14 32.8672 69.6147 33.0253C70.2675 33.1273 70.7801 33.4257 71.1524 33.9204C71.5298 34.41 71.7185 35.0297 71.7185 35.7794C71.7185 36.2333 71.6395 36.6643 71.4814 37.0723C71.3233 37.4803 71.0989 37.8271 70.8081 38.1127C70.5021 38.4238 70.1222 38.6432 69.6683 38.7707C69.2143 38.8982 68.4519 38.9619 67.3808 38.9619H64.5426ZM77.1885 29.3073V38.9619H75.3677V29.3073H72.3918V27.7619H80.1491V29.3073H77.1885ZM89.9644 30.4854C89.4493 30.0468 88.9036 29.7178 88.3273 29.4985C87.756 29.2792 87.1542 29.1696 86.5218 29.1696C85.2978 29.1696 84.3007 29.5623 83.5305 30.3477C82.7655 31.1331 82.383 32.1506 82.383 33.4002C82.383 34.6089 82.7553 35.606 83.4999 36.3914C84.2497 37.1769 85.1932 37.5696 86.3305 37.5696C86.9936 37.5696 87.6234 37.4523 88.2202 37.2177C88.822 36.983 89.3983 36.6286 89.9491 36.1543V38.2122C89.4595 38.5641 88.9265 38.8268 88.3502 39.0002C87.7739 39.1736 87.1491 39.2603 86.4759 39.2603C85.6191 39.2603 84.826 39.12 84.0967 38.8395C83.3724 38.559 82.7349 38.1459 82.1841 37.6002C81.6384 37.0646 81.2176 36.4348 80.9218 35.7105C80.6311 34.9812 80.4857 34.206 80.4857 33.3849C80.4857 32.5637 80.6311 31.7936 80.9218 31.0745C81.2176 30.3503 81.6435 29.7153 82.1994 29.1696C82.7553 28.6187 83.3928 28.2031 84.112 27.9226C84.8311 27.637 85.6089 27.4942 86.4453 27.4942C87.1032 27.4942 87.7305 27.5911 88.3273 27.7849C88.924 27.9736 89.5029 28.2617 90.0639 28.6493L89.9644 30.4854ZM96.4213 27.5095H97.7218L92.2366 40.4155H90.936L96.4213 27.5095ZM98.9688 27.7619H100.767V34.563C100.767 35.5728 100.999 36.3328 101.463 36.8428C101.932 37.3477 102.631 37.6002 103.559 37.6002C104.482 37.6002 105.176 37.3477 105.64 36.8428C106.109 36.3328 106.344 35.5728 106.344 34.563V27.7619H108.164V34.7313C108.164 36.2461 107.782 37.3809 107.017 38.1357C106.252 38.8854 105.099 39.2603 103.559 39.2603C102.019 39.2603 100.869 38.8854 100.109 38.1357C99.3488 37.386 98.9688 36.2512 98.9688 34.7313V27.7619ZM110.031 36.7204L111.485 36.0472C111.622 36.547 111.875 36.9295 112.242 37.1947C112.609 37.4548 113.078 37.5849 113.65 37.5849C114.19 37.5849 114.619 37.4344 114.935 37.1335C115.256 36.8326 115.417 36.4297 115.417 35.9248C115.417 35.2668 114.871 34.6803 113.78 34.1652C113.627 34.0887 113.509 34.0326 113.428 33.9969C112.194 33.3951 111.37 32.8519 110.957 32.3674C110.549 31.8778 110.345 31.281 110.345 30.5772C110.345 29.6643 110.653 28.9248 111.27 28.3586C111.893 27.7925 112.706 27.5095 113.711 27.5095C114.537 27.5095 115.228 27.6701 115.784 27.9914C116.34 28.3076 116.725 28.7641 116.939 29.3608L115.516 30.0952C115.292 29.7433 115.045 29.4858 114.774 29.3226C114.509 29.1594 114.203 29.0778 113.856 29.0778C113.367 29.0778 112.976 29.2053 112.686 29.4603C112.4 29.7153 112.257 30.057 112.257 30.4854C112.257 31.1586 112.89 31.786 114.155 32.3674C114.251 32.4133 114.328 32.449 114.384 32.4745C115.491 32.9845 116.251 33.4843 116.664 33.9739C117.077 34.4585 117.284 35.0654 117.284 35.7947C117.284 36.8555 116.949 37.6996 116.281 38.3269C115.613 38.9492 114.711 39.2603 113.573 39.2603C112.619 39.2603 111.837 39.041 111.225 38.6024C110.618 38.1637 110.22 37.5364 110.031 36.7204ZM121.093 37.3171H122.623C123.465 37.3171 124.095 37.261 124.513 37.1488C124.936 37.0366 125.304 36.8479 125.615 36.5827C126.038 36.2206 126.354 35.7718 126.563 35.2362C126.778 34.6956 126.885 34.0683 126.885 33.3543C126.885 32.6402 126.778 32.0155 126.563 31.4799C126.354 30.9393 126.038 30.488 125.615 30.1258C125.298 29.8606 124.919 29.6719 124.475 29.5597C124.036 29.4475 123.348 29.3914 122.409 29.3914H121.751H121.093V37.3171ZM119.273 38.9619V27.7619H121.728C123.325 27.7619 124.447 27.8435 125.094 28.0067C125.747 28.1648 126.319 28.4326 126.808 28.81C127.456 29.3047 127.945 29.9397 128.277 30.7149C128.614 31.4901 128.782 32.375 128.782 33.3696C128.782 34.3641 128.614 35.2464 128.277 36.0166C127.945 36.7816 127.456 37.414 126.808 37.9138C126.319 38.2912 125.76 38.5615 125.133 38.7248C124.511 38.8829 123.539 38.9619 122.218 38.9619H121.728H119.273ZM134.489 29.3073V38.9619H132.668V29.3073H129.692V27.7619H137.45V29.3073H134.489Z" fill="white"/>
<circle cx="254.558" cy="37.7482" r="1.22254" transform="rotate(180 254.558 37.7482)" fill="white"/>
<circle cx="254.558" cy="32.859" r="1.22254" transform="rotate(180 254.558 32.859)" fill="white"/>
<circle cx="254.558" cy="27.9659" r="1.22254" transform="rotate(180 254.558 27.9659)" fill="white"/>
<defs>
<filter id="filter0_b_205_3734" x="-8.23455" y="-7.78533" width="297.373" height="187.821" filterUnits="userSpaceOnUse" color-interpolation-filters="sRGB">
<feFlood flood-opacity="0" result="BackgroundImageFix"/>
<feGaussianBlur in="BackgroundImageFix" stdDeviation="4.11728"/>
<feComposite in2="SourceAlpha" operator="in" result="effect1_backgroundBlur_205_3734"/>
<feBlend mode="normal" in="SourceGraphic" in2="effect1_backgroundBlur_205_3734" result="shape"/>
</filter>
<linearGradient id="paint0_linear_205_3734" x1="272.662" y1="165.292" x2="184.098" y2="53.5132" gradientUnits="userSpaceOnUse">
<stop stop-color="#00D1FF"/>
<stop offset="1" stop-color="#00D1FF" stop-opacity="0"/>
</linearGradient>
<linearGradient id="paint1_linear_205_3734" x1="-1.54343" y1="0.0190806" x2="96.3575" y2="127.29" gradientUnits="userSpaceOnUse">
<stop stop-color="#15BFFD"/>
<stop offset="1" stop-color="#00D1FF" stop-opacity="0"/>
</linearGradient>
</defs>
</svg>
