<svg width="282" height="172" viewBox="0 0 282 172" fill="none" xmlns="http://www.w3.org/2000/svg">
<g filter="url(#filter0_b_205_3759)">
<rect x="0.803467" y="0.449219" width="280.904" height="171.351" rx="10.4803" fill="white" fill-opacity="0.04"/>
<rect x="1.47702" y="1.12277" width="279.557" height="170.004" rx="9.80678" stroke="url(#paint0_linear_205_3759)" stroke-width="1.34711"/>
<rect x="1.47702" y="1.12277" width="279.557" height="170.004" rx="9.80678" stroke="url(#paint1_linear_205_3759)" stroke-width="1.34711"/>
</g>
<path d="M20.87 148.804C21.4182 149.441 21.9729 149.92 22.5339 150.238C23.1013 150.551 23.6814 150.707 24.2743 150.707C24.7525 150.707 25.1477 150.57 25.4601 150.296C25.7789 150.015 25.9383 149.668 25.9383 149.253C25.9383 148.801 25.8044 148.453 25.5366 148.211C25.2752 147.962 24.6728 147.71 23.7292 147.455C22.2948 147.06 21.2875 146.569 20.7074 145.983C20.1336 145.39 19.8467 144.58 19.8467 143.554C19.8467 142.292 20.242 141.268 21.0325 140.484C21.8294 139.7 22.9419 139.235 24.37 139.088V137.759H25.6036L25.6131 139.069C26.1678 139.126 26.7128 139.257 27.2484 139.461C27.7839 139.659 28.313 139.933 28.8358 140.283L27.6213 143.009C27.1942 142.645 26.7543 142.371 26.3016 142.186C25.849 142.001 25.3964 141.909 24.9437 141.909C24.4847 141.909 24.1149 142.017 23.8344 142.234C23.5539 142.445 23.4137 142.722 23.4137 143.066C23.4137 143.417 23.538 143.697 23.7866 143.908C24.0353 144.118 24.523 144.319 25.2497 144.51L25.374 144.548C26.9424 144.969 27.972 145.435 28.4628 145.945C28.7944 146.289 29.0462 146.7 29.2183 147.178C29.3968 147.656 29.4861 148.185 29.4861 148.766C29.4861 150.092 29.0844 151.191 28.2812 152.065C27.4779 152.938 26.4036 153.445 25.0585 153.585V155.909H23.8249V153.624C22.9196 153.611 22.0876 153.442 21.329 153.117C20.5703 152.792 19.8404 152.288 19.1391 151.606L20.87 148.804ZM37.7771 148.708H41.3249V148.938C41.3249 149.55 41.4683 150.015 41.7552 150.334C42.0421 150.646 42.466 150.802 43.0271 150.802C43.6136 150.802 44.063 150.653 44.3754 150.353C44.6878 150.047 44.844 149.607 44.844 149.033C44.844 148.389 44.6751 147.918 44.3372 147.618C44.0057 147.312 43.4829 147.159 42.7689 147.159C42.6541 147.159 42.5649 147.162 42.5011 147.169C42.4437 147.169 42.3895 147.169 42.3385 147.169V144.921H42.5394C43.1833 144.921 43.6773 144.781 44.0216 144.501C44.3659 144.22 44.538 143.812 44.538 143.277C44.538 142.849 44.3914 142.502 44.0981 142.234C43.8112 141.966 43.4414 141.833 42.9888 141.833C42.5043 141.833 42.1281 141.963 41.8604 142.225C41.5926 142.486 41.4524 142.856 41.4396 143.334H38.0544C38.0799 142.027 38.5357 141.013 39.4219 140.293C40.3144 139.566 41.5608 139.203 43.1609 139.203C44.589 139.203 45.711 139.528 46.5271 140.178C47.3495 140.822 47.7607 141.699 47.7607 142.808C47.7607 143.516 47.5726 144.118 47.1965 144.615C46.8203 145.106 46.272 145.463 45.5516 145.686C46.4251 145.846 47.104 146.228 47.5885 146.834C48.0731 147.433 48.3153 148.201 48.3153 149.139C48.3153 150.496 47.8308 151.599 46.8618 152.447C45.8991 153.295 44.64 153.719 43.0844 153.719C41.4524 153.719 40.1582 153.282 39.2019 152.409C38.252 151.529 37.7771 150.34 37.7771 148.842V148.708ZM56.109 147.455V143.382C56.109 143.006 56.1154 142.693 56.1282 142.445C56.1473 142.19 56.1728 141.973 56.2047 141.794C56.0835 142.068 55.9465 142.343 55.7935 142.617C55.6468 142.891 55.4651 143.197 55.2484 143.535L52.676 147.455H56.109ZM56.109 153.346V150.21H49.7402V147.455L54.9519 139.423H59.303V147.455H60.8522V150.21H59.303V153.346H56.109ZM62.5926 151.778C62.5926 151.236 62.7743 150.78 63.1377 150.41C63.5075 150.041 63.9633 149.856 64.5052 149.856C65.0598 149.856 65.5221 150.041 65.8918 150.41C66.2616 150.78 66.4465 151.236 66.4465 151.778C66.4465 152.32 66.2584 152.779 65.8823 153.155C65.5125 153.531 65.0535 153.719 64.5052 153.719C63.9697 153.719 63.517 153.531 63.1473 153.155C62.7775 152.779 62.5926 152.32 62.5926 151.778ZM73.6855 144.73C74.1955 144.73 74.6004 144.587 74.9 144.3C75.1996 144.013 75.3495 143.621 75.3495 143.124C75.3495 142.626 75.2028 142.237 74.9096 141.957C74.6163 141.676 74.2083 141.536 73.6855 141.536C73.1755 141.536 72.7739 141.68 72.4806 141.966C72.1874 142.247 72.0407 142.633 72.0407 143.124C72.0407 143.614 72.1874 144.006 72.4806 144.3C72.7802 144.587 73.1819 144.73 73.6855 144.73ZM73.6855 150.917C74.2848 150.917 74.7566 150.751 75.1008 150.42C75.4515 150.088 75.6268 149.633 75.6268 149.052C75.6268 148.485 75.4515 148.039 75.1008 147.714C74.7566 147.382 74.2848 147.216 73.6855 147.216C73.0926 147.216 72.6241 147.382 72.2798 147.714C71.9355 148.039 71.7634 148.485 71.7634 149.052C71.7634 149.626 71.9355 150.082 72.2798 150.42C72.6304 150.751 73.099 150.917 73.6855 150.917ZM76.1527 145.868C77.0644 146.034 77.7721 146.435 78.2757 147.073C78.7793 147.704 79.0312 148.511 79.0312 149.492C79.0312 150.818 78.5594 151.854 77.6159 152.6C76.6787 153.346 75.3686 153.719 73.6855 153.719C72.0088 153.719 70.7019 153.346 69.7648 152.6C68.8276 151.854 68.359 150.818 68.359 149.492C68.359 148.511 68.6108 147.704 69.1145 147.073C69.6181 146.435 70.3258 146.034 71.2374 145.868C70.4979 145.69 69.9273 145.352 69.5257 144.854C69.1241 144.351 68.9232 143.729 68.9232 142.99C68.9232 141.797 69.3408 140.87 70.176 140.207C71.0175 139.537 72.1874 139.203 73.6855 139.203C75.1901 139.203 76.3631 139.537 77.2047 140.207C78.0462 140.876 78.467 141.804 78.467 142.99C78.467 143.729 78.2661 144.351 77.8645 144.854C77.4629 145.352 76.8923 145.69 76.1527 145.868ZM90.2771 139.48V142.339H84.9697L84.6924 144.137C84.9792 144.073 85.2661 144.026 85.553 143.994C85.8463 143.962 86.1332 143.946 86.4137 143.946C87.8353 143.946 88.9574 144.373 89.7798 145.227C90.6022 146.075 91.0134 147.229 91.0134 148.689C91.0134 150.245 90.5002 151.472 89.4738 152.371C88.4537 153.27 87.0544 153.719 85.2757 153.719C84.4278 153.719 83.6373 153.624 82.9041 153.432C82.171 153.241 81.5271 152.964 80.9724 152.6L81.221 149.215L81.5175 149.272C81.8618 149.789 82.3208 150.197 82.8945 150.496C83.4683 150.79 84.0867 150.936 84.7497 150.936C85.6359 150.936 86.3212 150.726 86.8057 150.305C87.2903 149.878 87.5325 149.279 87.5325 148.507C87.5325 147.768 87.2711 147.162 86.7484 146.69C86.2256 146.219 85.5466 145.983 84.7115 145.983C84.1505 145.983 83.6436 146.078 83.191 146.27C82.7384 146.455 82.3303 146.738 81.967 147.121L81.4984 146.843L82.6555 139.48H90.2771ZM103.474 146.585C103.474 148.804 103.002 150.547 102.058 151.816C101.121 153.085 99.8303 153.719 98.1855 153.719C96.5407 153.719 95.2434 153.075 94.2935 151.787C93.3499 150.493 92.8782 148.715 92.8782 146.451C92.8782 144.195 93.3499 142.422 94.2935 141.134C95.2434 139.847 96.5407 139.203 98.1855 139.203C99.8558 139.203 101.153 139.85 102.078 141.144C103.008 142.432 103.474 144.246 103.474 146.585ZM96.4068 146.451C96.4068 147.981 96.5471 149.1 96.8276 149.808C97.1145 150.509 97.5671 150.86 98.1855 150.86C98.7912 150.86 99.2343 150.506 99.5148 149.798C99.8017 149.091 99.9451 147.975 99.9451 146.451C99.9451 144.94 99.8017 143.828 99.5148 143.114C99.2343 142.4 98.7912 142.043 98.1855 142.043C97.5608 142.043 97.1081 142.394 96.8276 143.095C96.5471 143.79 96.4068 144.909 96.4068 146.451ZM106.591 150.171H110.149L107.194 156.167H104.554L106.591 150.171ZM115.121 153.346V142.655H112.119L113.763 139.48H118.602V153.346H115.121ZM134.075 146.585C134.075 148.804 133.603 150.547 132.66 151.816C131.722 153.085 130.431 153.719 128.787 153.719C127.142 153.719 125.844 153.075 124.895 151.787C123.951 150.493 123.479 148.715 123.479 146.451C123.479 144.195 123.951 142.422 124.895 141.134C125.844 139.847 127.142 139.203 128.787 139.203C130.457 139.203 131.754 139.85 132.679 141.144C133.609 142.432 134.075 144.246 134.075 146.585ZM127.008 146.451C127.008 147.981 127.148 149.1 127.429 149.808C127.716 150.509 128.168 150.86 128.787 150.86C129.392 150.86 129.835 150.506 130.116 149.798C130.403 149.091 130.546 147.975 130.546 146.451C130.546 144.94 130.403 143.828 130.116 143.114C129.835 142.4 129.392 142.043 128.787 142.043C128.162 142.043 127.709 142.394 127.429 143.095C127.148 143.79 127.008 144.909 127.008 146.451Z" fill="white"/>
<rect x="18.594" y="94.084" width="63.7321" height="20.6701" rx="10.3351" fill="#FD6868" fill-opacity="0.16"/>
<path d="M37.6328 105.421H40.3614V106.441H37.6328V105.421ZM46.9559 104.737C46.9559 105.924 46.7162 106.854 46.2368 107.527C45.7608 108.197 45.1046 108.532 44.2681 108.532C43.4215 108.532 42.7619 108.194 42.2893 107.517C41.82 106.837 41.5854 105.883 41.5854 104.656C41.5854 103.439 41.8234 102.49 42.2995 101.81C42.7755 101.13 43.4368 100.79 44.2834 100.79C45.1403 100.79 45.7999 101.132 46.2623 101.815C46.7247 102.495 46.9559 103.469 46.9559 104.737ZM44.2477 107.486C44.7441 107.486 45.1165 107.25 45.3647 106.777C45.6163 106.301 45.7421 105.591 45.7421 104.646C45.7421 103.728 45.618 103.029 45.3698 102.549C45.125 102.067 44.7662 101.825 44.2936 101.825C43.8006 101.825 43.4283 102.065 43.1767 102.544C42.9251 103.024 42.7993 103.731 42.7993 104.666C42.7993 105.574 42.9234 106.271 43.1716 106.757C43.4232 107.243 43.7819 107.486 44.2477 107.486ZM48.3381 107.767C48.3381 107.58 48.4027 107.42 48.5319 107.287C48.6611 107.155 48.8192 107.089 49.0062 107.089C49.1932 107.089 49.3513 107.155 49.4805 107.287C49.6097 107.42 49.6743 107.58 49.6743 107.767C49.6743 107.95 49.6097 108.107 49.4805 108.236C49.3513 108.362 49.1932 108.425 49.0062 108.425C48.8192 108.425 48.6611 108.362 48.5319 108.236C48.4027 108.107 48.3381 107.95 48.3381 107.767ZM52.4947 104.385C52.1241 104.226 51.8521 104.017 51.6787 103.758C51.5053 103.5 51.4186 103.177 51.4186 102.789C51.4186 102.191 51.6294 101.708 52.051 101.341C52.4726 100.973 53.0302 100.79 53.7239 100.79C54.4345 100.79 54.9989 100.977 55.4171 101.351C55.8353 101.721 56.0444 102.218 56.0444 102.84C56.0444 103.207 55.9526 103.524 55.769 103.789C55.5888 104.051 55.3219 104.249 54.9683 104.385C55.3831 104.521 55.7078 104.763 55.9424 105.11C56.177 105.453 56.2944 105.859 56.2944 106.329C56.2944 107.015 56.0665 107.554 55.6109 107.945C55.1587 108.336 54.5297 108.532 53.7239 108.532C52.9316 108.532 52.3077 108.336 51.8521 107.945C51.3965 107.554 51.1687 107.022 51.1687 106.349C51.1687 105.859 51.2843 105.445 51.5155 105.105C51.7467 104.761 52.0731 104.521 52.4947 104.385ZM53.7494 101.774C53.3957 101.774 53.1169 101.868 52.9129 102.055C52.7089 102.238 52.6069 102.49 52.6069 102.81C52.6069 103.122 52.7055 103.367 52.9027 103.544C53.1033 103.721 53.377 103.809 53.7239 103.809C54.0809 103.809 54.358 103.722 54.5552 103.549C54.7558 103.372 54.8561 103.126 54.8561 102.81C54.8561 102.486 54.7575 102.233 54.5603 102.05C54.3631 101.866 54.0928 101.774 53.7494 101.774ZM53.7239 107.537C54.1625 107.537 54.5059 107.423 54.7541 107.196C55.0023 106.964 55.1264 106.647 55.1264 106.242C55.1264 105.834 55.0023 105.514 54.7541 105.283C54.5059 105.052 54.1625 104.936 53.7239 104.936C53.2954 104.936 52.9571 105.054 52.7089 105.288C52.4607 105.523 52.3366 105.841 52.3366 106.242C52.3366 106.647 52.459 106.964 52.7038 107.196C52.9486 107.423 53.2886 107.537 53.7239 107.537ZM63.2051 107.925C63.4601 107.925 63.6505 107.811 63.7763 107.583C63.9021 107.355 63.965 107.014 63.965 106.558C63.965 106.12 63.9004 105.785 63.7712 105.553C63.6454 105.319 63.4635 105.201 63.2255 105.201C62.9739 105.201 62.7835 105.317 62.6543 105.548C62.5285 105.776 62.4656 106.116 62.4656 106.568C62.4656 107.004 62.5285 107.338 62.6543 107.573C62.7835 107.808 62.9671 107.925 63.2051 107.925ZM61.5526 106.558C61.5526 105.939 61.7005 105.458 61.9964 105.115C62.2922 104.768 62.7019 104.595 63.2255 104.595C63.7525 104.595 64.1605 104.766 64.4495 105.11C64.742 105.45 64.8882 105.933 64.8882 106.558C64.8882 107.177 64.7403 107.661 64.4444 108.012C64.1486 108.359 63.7389 108.532 63.2153 108.532C62.6917 108.532 62.2837 108.359 61.9913 108.012C61.6988 107.665 61.5526 107.18 61.5526 106.558ZM57.1869 102.753C57.1869 102.138 57.3348 101.657 57.6306 101.31C57.9264 100.963 58.3361 100.79 58.8597 100.79C59.3868 100.79 59.7948 100.962 60.0838 101.305C60.3762 101.645 60.5224 102.128 60.5224 102.753C60.5224 103.376 60.3762 103.858 60.0838 104.202C59.7914 104.545 59.3834 104.717 58.8597 104.717C58.3327 104.717 57.9213 104.545 57.6255 104.202C57.3331 103.858 57.1869 103.376 57.1869 102.753ZM58.8495 104.125C59.1012 104.125 59.2882 104.011 59.4106 103.784C59.5364 103.556 59.5993 103.212 59.5993 102.753C59.5993 102.311 59.5364 101.973 59.4106 101.738C59.2848 101.504 59.1046 101.387 58.8699 101.387C58.6183 101.387 58.4279 101.504 58.2987 101.738C58.1729 101.97 58.11 102.311 58.11 102.764C58.11 103.202 58.1729 103.539 58.2987 103.773C58.4279 104.008 58.6115 104.125 58.8495 104.125ZM59.2168 108.532H58.5129L62.8685 100.79H63.5723L59.2168 108.532Z" fill="#FF2525"/>
<rect x="95.0725" y="94.084" width="20.3943" height="20.3943" rx="10.1971" fill="#FF2525"/>
<path d="M101.971 102.891C101.985 102.596 102.22 102.36 102.515 102.346C102.851 102.33 103.129 102.607 103.113 102.943L102.982 105.796L108.022 100.756C108.236 100.542 108.582 100.542 108.795 100.756C109.009 100.969 109.009 101.315 108.795 101.529L103.755 106.569L106.607 106.438C106.944 106.422 107.221 106.7 107.205 107.036C107.191 107.331 106.955 107.566 106.66 107.58L101.899 107.8C101.816 107.804 101.747 107.735 101.751 107.652L101.971 102.891Z" fill="white"/>
<path d="M159.046 110.116C159.046 110.116 160.298 106.002 161.7 99.9631C162.628 95.9669 163.556 91.671 166.648 88.9753C170.344 85.7537 175.201 85.6737 180.52 89.4413C182.21 90.6384 183.426 92.3614 184.797 93.9138C188.412 98.008 194.331 100.188 200.877 84.3861C201.703 82.3911 202.221 80.2712 202.627 78.1503C203.986 71.0396 206.798 61.5264 215.521 66.6343C220.391 69.4866 223.928 77.2682 229.004 74.7995C232.376 73.1596 236.803 68.0976 242.179 56.6299" stroke="#FF2525" stroke-width="2.44508"/>
<path fill-rule="evenodd" clip-rule="evenodd" d="M54.6869 32.856C54.6869 23.4069 47.0261 15.7461 37.577 15.7461C28.1268 15.7461 20.467 23.4049 20.467 32.856C20.467 42.3072 28.1282 49.966 37.577 49.966C47.0258 49.966 54.6869 42.3052 54.6869 32.856ZM39.6901 34.4374V34.4394L39.6908 34.4377C43.8608 34.2519 46.9748 33.523 46.9748 32.6552C46.9748 31.7874 43.8622 31.0588 39.6908 30.873V33.715C39.571 33.7259 38.9184 33.78 37.6205 33.78C36.5398 33.78 35.7568 33.7338 35.4831 33.715V30.873C31.3038 31.0585 28.1836 31.7853 28.1836 32.6562C28.1836 33.5271 31.3035 34.255 35.4831 34.4401V34.4367C35.7524 34.4507 36.5165 34.4815 37.6027 34.4815C38.9612 34.4815 39.5713 34.4449 39.6901 34.4374ZM39.6887 28.0327V30.578L39.6901 30.5787C44.4124 30.7967 47.9624 31.7329 47.9624 32.8543C47.9624 33.9757 44.4124 34.912 39.6901 35.13V43.2835H35.481V35.1306C30.7518 34.912 27.193 33.975 27.193 32.8526C27.193 31.7302 30.7501 30.7933 35.481 30.576V28.0327H29.6599V24.1546H45.5092V28.0327H39.6887Z" fill="#FF2525"/>
<path d="M66.2262 27.7609H68.024V34.562C68.024 35.5719 68.256 36.3318 68.7201 36.8418C69.1894 37.3467 69.8881 37.5992 70.8163 37.5992C71.7395 37.5992 72.4331 37.3467 72.8972 36.8418C73.3664 36.3318 73.601 35.5719 73.601 34.562V27.7609H75.4218V34.7303C75.4218 36.2451 75.0393 37.3799 74.2742 38.1347C73.5092 38.8844 72.3566 39.2593 70.8163 39.2593C69.2761 39.2593 68.126 38.8844 67.3661 38.1347C66.6061 37.385 66.2262 36.2502 66.2262 34.7303V27.7609ZM77.2885 36.7194L78.742 36.0462C78.8797 36.546 79.1322 36.9285 79.4994 37.1937C79.8666 37.4538 80.3358 37.5839 80.907 37.5839C81.4477 37.5839 81.8761 37.4334 82.1923 37.1325C82.5136 36.8316 82.6742 36.4287 82.6742 35.9238C82.6742 35.2659 82.1285 34.6793 81.0371 34.1642C80.8841 34.0877 80.7668 34.0316 80.6852 33.9959C79.4509 33.3941 78.6273 32.8509 78.2141 32.3664C77.8061 31.8768 77.6021 31.2801 77.6021 30.5762C77.6021 29.6633 77.9107 28.9238 78.5278 28.3577C79.15 27.7915 79.9635 27.5085 80.9682 27.5085C81.7945 27.5085 82.4855 27.6691 83.0415 27.9904C83.5974 28.3067 83.9824 28.7631 84.1967 29.3598L82.7737 30.0943C82.5493 29.7424 82.3019 29.4848 82.0316 29.3216C81.7664 29.1584 81.4604 29.0768 81.1136 29.0768C80.624 29.0768 80.2338 29.2043 79.9431 29.4593C79.6575 29.7143 79.5147 30.056 79.5147 30.4844C79.5147 31.1577 80.1471 31.785 81.412 32.3664C81.5089 32.4123 81.5854 32.448 81.6415 32.4735C82.7482 32.9835 83.5081 33.4833 83.9212 33.973C84.3344 34.4575 84.5409 35.0644 84.5409 35.7937C84.5409 36.8546 84.2069 37.6986 83.5387 38.326C82.8706 38.9482 81.9679 39.2593 80.8305 39.2593C79.8768 39.2593 79.0939 39.04 78.4819 38.6014C77.875 38.1628 77.4772 37.5354 77.2885 36.7194ZM88.3508 37.3161H89.8808C90.7223 37.3161 91.3522 37.26 91.7704 37.1478C92.1937 37.0356 92.561 36.8469 92.8721 36.5817C93.2954 36.2196 93.6116 35.7708 93.8207 35.2353C94.0349 34.6946 94.142 34.0673 94.142 33.3533C94.142 32.6393 94.0349 32.0145 93.8207 31.479C93.6116 30.9384 93.2954 30.487 92.8721 30.1249C92.5559 29.8597 92.1759 29.671 91.7322 29.5588C91.2936 29.4465 90.605 29.3904 89.6666 29.3904H89.0087H88.3508V37.3161ZM86.53 38.9609V27.7609H88.9857C90.5821 27.7609 91.7041 27.8425 92.3518 28.0057C93.0047 28.1639 93.5759 28.4316 94.0655 28.809C94.7132 29.3037 95.2028 29.9387 95.5344 30.7139C95.871 31.4892 96.0393 32.3741 96.0393 33.3686C96.0393 34.3631 95.871 35.2455 95.5344 36.0156C95.2028 36.7806 94.7132 37.413 94.0655 37.9129C93.5759 38.2903 93.0174 38.5606 92.3901 38.7238C91.7679 38.8819 90.7963 38.9609 89.4753 38.9609H88.9857H86.53ZM101.746 29.3063V38.9609H99.9256V29.3063H96.9497V27.7609H104.707V29.3063H101.746Z" fill="white"/>
<circle cx="258.16" cy="37.7472" r="1.22254" transform="rotate(180 258.16 37.7472)" fill="white"/>
<circle cx="258.16" cy="32.858" r="1.22254" transform="rotate(180 258.16 32.858)" fill="white"/>
<circle cx="258.16" cy="27.965" r="1.22254" transform="rotate(180 258.16 27.965)" fill="white"/>
<defs>
<filter id="filter0_b_205_3759" x="-7.43108" y="-7.78533" width="297.373" height="187.821" filterUnits="userSpaceOnUse" color-interpolation-filters="sRGB">
<feFlood flood-opacity="0" result="BackgroundImageFix"/>
<feGaussianBlur in="BackgroundImageFix" stdDeviation="4.11728"/>
<feComposite in2="SourceAlpha" operator="in" result="effect1_backgroundBlur_205_3759"/>
<feBlend mode="normal" in="SourceGraphic" in2="effect1_backgroundBlur_205_3759" result="shape"/>
</filter>
<linearGradient id="paint0_linear_205_3759" x1="273.466" y1="165.292" x2="184.902" y2="53.5132" gradientUnits="userSpaceOnUse">
<stop stop-color="#FF2525"/>
<stop offset="1" stop-color="#00D1FF" stop-opacity="0"/>
</linearGradient>
<linearGradient id="paint1_linear_205_3759" x1="-0.739961" y1="0.0190806" x2="97.161" y2="127.29" gradientUnits="userSpaceOnUse">
<stop stop-color="#FF2525"/>
<stop offset="1" stop-color="#00D1FF" stop-opacity="0"/>
</linearGradient>
</defs>
</svg>
