<svg width="282" height="173" viewBox="0 0 282 173" fill="none" xmlns="http://www.w3.org/2000/svg">
<g filter="url(#filter0_b_205_3804)">
<rect x="0.803467" y="0.272949" width="280.904" height="172.288" rx="10.4803" fill="white" fill-opacity="0.04"/>
<rect x="1.47702" y="0.946502" width="279.557" height="170.941" rx="9.80678" stroke="url(#paint0_linear_205_3804)" stroke-width="1.34711"/>
<rect x="1.47702" y="0.946502" width="279.557" height="170.941" rx="9.80678" stroke="url(#paint1_linear_205_3804)" stroke-width="1.34711"/>
</g>
<path d="M20.8697 148.627C21.418 149.265 21.9726 149.743 22.5336 150.062C23.101 150.374 23.6812 150.53 24.2741 150.53C24.7522 150.53 25.1475 150.393 25.4599 150.119C25.7786 149.838 25.938 149.491 25.938 149.077C25.938 148.624 25.8041 148.276 25.5364 148.034C25.275 147.786 24.6725 147.534 23.729 147.279C22.2946 146.883 21.2873 146.393 20.7071 145.806C20.1334 145.213 19.8465 144.403 19.8465 143.377C19.8465 142.115 20.2417 141.092 21.0323 140.307C21.8292 139.523 22.9417 139.058 24.3697 138.911V137.582H25.6033L25.6129 138.892C26.1675 138.949 26.7126 139.08 27.2481 139.284C27.7836 139.482 28.3128 139.756 28.8356 140.107L27.6211 142.832C27.1939 142.469 26.754 142.194 26.3014 142.01C25.8488 141.825 25.3961 141.732 24.9435 141.732C24.4845 141.732 24.1147 141.841 23.8342 142.057C23.5537 142.268 23.4134 142.545 23.4134 142.889C23.4134 143.24 23.5377 143.521 23.7864 143.731C24.035 143.941 24.5227 144.142 25.2495 144.333L25.3738 144.372C26.9421 144.792 27.9717 145.258 28.4626 145.768C28.7941 146.112 29.0459 146.523 29.2181 147.001C29.3966 147.48 29.4858 148.009 29.4858 148.589C29.4858 149.915 29.0842 151.015 28.2809 151.888C27.4776 152.761 26.4034 153.268 25.0582 153.409V155.732H23.8246V153.447C22.9193 153.434 22.0874 153.265 21.3287 152.94C20.5701 152.615 19.8401 152.111 19.1388 151.429L20.8697 148.627ZM31.6375 148.531H35.1853V148.761C35.1853 149.373 35.3287 149.838 35.6156 150.157C35.9025 150.47 36.3264 150.626 36.8875 150.626C37.474 150.626 37.9234 150.476 38.2358 150.176C38.5482 149.87 38.7044 149.43 38.7044 148.857C38.7044 148.213 38.5355 147.741 38.1976 147.441C37.8661 147.135 37.3433 146.982 36.6293 146.982C36.5145 146.982 36.4253 146.985 36.3615 146.992C36.3041 146.992 36.2499 146.992 36.1989 146.992V144.745H36.3998C37.0437 144.745 37.5377 144.604 37.882 144.324C38.2263 144.043 38.3984 143.635 38.3984 143.1C38.3984 142.673 38.2518 142.325 37.9585 142.057C37.6716 141.79 37.3019 141.656 36.8492 141.656C36.3647 141.656 35.9886 141.786 35.7208 142.048C35.453 142.309 35.3128 142.679 35.3 143.157H31.9148C31.9403 141.85 32.3961 140.837 33.2823 140.116C34.1748 139.389 35.4212 139.026 37.0213 139.026C38.4494 139.026 39.5714 139.351 40.3875 140.001C41.2099 140.645 41.6211 141.522 41.6211 142.631C41.6211 143.339 41.433 143.941 41.0569 144.439C40.6807 144.929 40.1325 145.286 39.4121 145.51C40.2855 145.669 40.9644 146.051 41.4489 146.657C41.9335 147.256 42.1757 148.025 42.1757 148.962C42.1757 150.32 41.6912 151.423 40.7222 152.271C39.7595 153.118 38.5004 153.542 36.9448 153.542C35.3128 153.542 34.0186 153.106 33.0623 152.232C32.1124 151.352 31.6375 150.164 31.6375 148.665V148.531ZM49.9694 147.279V143.205C49.9694 142.829 49.9758 142.516 49.9886 142.268C50.0077 142.013 50.0332 141.796 50.0651 141.618C49.9439 141.892 49.8069 142.166 49.6539 142.44C49.5072 142.714 49.3255 143.02 49.1088 143.358L46.5364 147.279H49.9694ZM49.9694 153.169V150.033H43.6006V147.279L48.8123 139.246H53.1634V147.279H54.7126V150.033H53.1634V153.169H49.9694ZM56.453 151.601C56.453 151.059 56.6347 150.603 56.9981 150.234C57.3679 149.864 57.8237 149.679 58.3656 149.679C58.9203 149.679 59.3825 149.864 59.7522 150.234C60.122 150.603 60.3069 151.059 60.3069 151.601C60.3069 152.143 60.1188 152.602 59.7427 152.978C59.3729 153.354 58.9139 153.542 58.3656 153.542C57.8301 153.542 57.3774 153.354 57.0077 152.978C56.6379 152.602 56.453 152.143 56.453 151.601ZM67.5459 144.553C68.056 144.553 68.4608 144.41 68.7604 144.123C69.0601 143.836 69.2099 143.444 69.2099 142.947C69.2099 142.449 69.0632 142.061 68.77 141.78C68.4767 141.5 68.0687 141.359 67.5459 141.359C67.0359 141.359 66.6343 141.503 66.341 141.79C66.0478 142.07 65.9011 142.456 65.9011 142.947C65.9011 143.438 66.0478 143.83 66.341 144.123C66.6407 144.41 67.0423 144.553 67.5459 144.553ZM67.5459 150.74C68.1452 150.74 68.617 150.575 68.9612 150.243C69.3119 149.912 69.4872 149.456 69.4872 148.876C69.4872 148.308 69.3119 147.862 68.9612 147.537C68.617 147.205 68.1452 147.04 67.5459 147.04C66.953 147.04 66.4845 147.205 66.1402 147.537C65.7959 147.862 65.6238 148.308 65.6238 148.876C65.6238 149.449 65.7959 149.905 66.1402 150.243C66.4908 150.575 66.9594 150.74 67.5459 150.74ZM70.0132 145.691C70.9248 145.857 71.6325 146.259 72.1361 146.896C72.6397 147.527 72.8916 148.334 72.8916 149.316C72.8916 150.642 72.4198 151.678 71.4763 152.424C70.5391 153.169 69.229 153.542 67.5459 153.542C65.8693 153.542 64.5623 153.169 63.6252 152.424C62.688 151.678 62.2194 150.642 62.2194 149.316C62.2194 148.334 62.4713 147.527 62.9749 146.896C63.4785 146.259 64.1862 145.857 65.0979 145.691C64.3583 145.513 63.7877 145.175 63.3861 144.678C62.9845 144.174 62.7836 143.552 62.7836 142.813C62.7836 141.621 63.2012 140.693 64.0364 140.03C64.8779 139.361 66.0478 139.026 67.5459 139.026C69.0505 139.026 70.2235 139.361 71.0651 140.03C71.9066 140.699 72.3274 141.627 72.3274 142.813C72.3274 143.552 72.1265 144.174 71.7249 144.678C71.3233 145.175 70.7527 145.513 70.0132 145.691ZM84.1375 139.303V142.163H78.8301L78.5528 143.96C78.8397 143.897 79.1265 143.849 79.4134 143.817C79.7067 143.785 79.9936 143.769 80.2741 143.769C81.6958 143.769 82.8178 144.196 83.6402 145.051C84.4626 145.898 84.8738 147.052 84.8738 148.512C84.8738 150.068 84.3606 151.295 83.3342 152.194C82.3142 153.093 80.9148 153.542 79.1361 153.542C78.2882 153.542 77.4977 153.447 76.7645 153.255C76.0314 153.064 75.3875 152.787 74.8328 152.424L75.0815 149.038L75.3779 149.096C75.7222 149.612 76.1812 150.02 76.755 150.32C77.3287 150.613 77.9471 150.76 78.6102 150.76C79.4963 150.76 80.1816 150.549 80.6662 150.128C81.1507 149.701 81.3929 149.102 81.3929 148.331C81.3929 147.591 81.1316 146.985 80.6088 146.514C80.086 146.042 79.4071 145.806 78.5719 145.806C78.0109 145.806 77.504 145.902 77.0514 146.093C76.5988 146.278 76.1908 146.562 75.8274 146.944L75.3588 146.667L76.5159 139.303H84.1375ZM97.3342 146.409C97.3342 148.627 96.8624 150.371 95.9189 151.639C94.9817 152.908 93.6908 153.542 92.0459 153.542C90.4011 153.542 89.1038 152.898 88.1539 151.611C87.2103 150.317 86.7386 148.538 86.7386 146.275C86.7386 144.018 87.2103 142.245 88.1539 140.958C89.1038 139.67 90.4011 139.026 92.0459 139.026C93.7163 139.026 95.0136 139.673 95.938 140.967C96.8688 142.255 97.3342 144.069 97.3342 146.409ZM90.2673 146.275C90.2673 147.805 90.4075 148.924 90.688 149.631C90.9749 150.332 91.4275 150.683 92.0459 150.683C92.6516 150.683 93.0947 150.329 93.3752 149.622C93.6621 148.914 93.8055 147.798 93.8055 146.275C93.8055 144.764 93.6621 143.651 93.3752 142.937C93.0947 142.223 92.6516 141.866 92.0459 141.866C91.4212 141.866 90.9685 142.217 90.688 142.918C90.4075 143.613 90.2673 144.732 90.2673 146.275ZM100.452 149.995H104.009L101.054 155.99H98.4148L100.452 149.995ZM108.982 153.169V142.478H105.979L107.624 139.303H112.463V153.169H108.982ZM127.935 146.409C127.935 148.627 127.464 150.371 126.52 151.639C125.583 152.908 124.292 153.542 122.647 153.542C121.002 153.542 119.705 152.898 118.755 151.611C117.811 150.317 117.34 148.538 117.34 146.275C117.34 144.018 117.811 142.245 118.755 140.958C119.705 139.67 121.002 139.026 122.647 139.026C124.317 139.026 125.615 139.673 126.539 140.967C127.47 142.255 127.935 144.069 127.935 146.409ZM120.868 146.275C120.868 147.805 121.009 148.924 121.289 149.631C121.576 150.332 122.029 150.683 122.647 150.683C123.253 150.683 123.696 150.329 123.976 149.622C124.263 148.914 124.407 147.798 124.407 146.275C124.407 144.764 124.263 143.651 123.976 142.937C123.696 142.223 123.253 141.866 122.647 141.866C122.022 141.866 121.57 142.217 121.289 142.918C121.009 143.613 120.868 144.732 120.868 146.275Z" fill="white"/>
<rect x="18.5938" y="93.9072" width="63.7321" height="20.6701" rx="10.3351" fill="#08F0FF" fill-opacity="0.08"/>
<path d="M38.9271 101.929H39.7941V104.617H42.4156V105.463H39.7941V108.156H38.9271V105.463H36.3056V104.617H38.9271V101.929ZM49.5508 104.561C49.5508 105.747 49.311 106.677 48.8316 107.35C48.3556 108.02 47.6994 108.355 46.863 108.355C46.0163 108.355 45.3567 108.017 44.8841 107.34C44.4149 106.66 44.1803 105.706 44.1803 104.479C44.1803 103.262 44.4183 102.313 44.8943 101.633C45.3703 100.953 46.0316 100.613 46.8783 100.613C47.7351 100.613 48.3947 100.955 48.8571 101.638C49.3195 102.318 49.5508 103.292 49.5508 104.561ZM46.8426 107.31C47.339 107.31 47.7113 107.073 47.9595 106.601C48.2111 106.125 48.3369 105.414 48.3369 104.469C48.3369 103.551 48.2128 102.852 47.9646 102.373C47.7198 101.89 47.3611 101.648 46.8885 101.648C46.3954 101.648 46.0231 101.888 45.7715 102.368C45.5199 102.847 45.3941 103.554 45.3941 104.489C45.3941 105.397 45.5182 106.094 45.7664 106.58C46.018 107.067 46.3767 107.31 46.8426 107.31ZM50.9329 107.59C50.9329 107.403 50.9975 107.243 51.1267 107.111C51.2559 106.978 51.414 106.912 51.601 106.912C51.788 106.912 51.9461 106.978 52.0753 107.111C52.2045 107.243 52.2692 107.403 52.2692 107.59C52.2692 107.774 52.2045 107.93 52.0753 108.059C51.9461 108.185 51.788 108.248 51.601 108.248C51.414 108.248 51.2559 108.185 51.1267 108.059C50.9975 107.93 50.9329 107.774 50.9329 107.59ZM55.0896 104.209C54.7189 104.049 54.4469 103.84 54.2735 103.581C54.1001 103.323 54.0134 103 54.0134 102.612C54.0134 102.014 54.2242 101.531 54.6458 101.164C55.0675 100.797 55.6251 100.613 56.3187 100.613C57.0293 100.613 57.5937 100.8 58.012 101.174C58.4302 101.545 58.6393 102.041 58.6393 102.663C58.6393 103.031 58.5475 103.347 58.3639 103.612C58.1837 103.874 57.9168 104.073 57.5631 104.209C57.978 104.345 58.3027 104.586 58.5373 104.933C58.7719 105.276 58.8892 105.683 58.8892 106.152C58.8892 106.839 58.6614 107.378 58.2058 107.769C57.7535 108.16 57.1245 108.355 56.3187 108.355C55.5265 108.355 54.9025 108.16 54.4469 107.769C53.9913 107.378 53.7635 106.846 53.7635 106.172C53.7635 105.683 53.8791 105.268 54.1103 104.928C54.3415 104.584 54.6679 104.345 55.0896 104.209ZM56.3442 101.597C55.9906 101.597 55.7118 101.691 55.5078 101.878C55.3038 102.062 55.2018 102.313 55.2018 102.633C55.2018 102.946 55.3004 103.19 55.4976 103.367C55.6982 103.544 55.9719 103.632 56.3187 103.632C56.6757 103.632 56.9528 103.546 57.15 103.372C57.3506 103.195 57.4509 102.949 57.4509 102.633C57.4509 102.31 57.3523 102.056 57.1551 101.873C56.9579 101.689 56.6876 101.597 56.3442 101.597ZM56.3187 107.361C56.7573 107.361 57.1007 107.247 57.3489 107.019C57.5971 106.788 57.7212 106.47 57.7212 106.065C57.7212 105.657 57.5971 105.338 57.3489 105.106C57.1007 104.875 56.7573 104.76 56.3187 104.76C55.8903 104.76 55.552 104.877 55.3038 105.111C55.0556 105.346 54.9314 105.664 54.9314 106.065C54.9314 106.47 55.0539 106.788 55.2987 107.019C55.5435 107.247 55.8835 107.361 56.3187 107.361ZM65.7999 107.748C66.0549 107.748 66.2454 107.634 66.3712 107.407C66.497 107.179 66.5599 106.837 66.5599 106.381C66.5599 105.943 66.4953 105.608 66.3661 105.377C66.2403 105.142 66.0583 105.025 65.8203 105.025C65.5687 105.025 65.3783 105.14 65.2491 105.372C65.1233 105.599 65.0604 105.939 65.0604 106.392C65.0604 106.827 65.1233 107.162 65.2491 107.396C65.3783 107.631 65.5619 107.748 65.7999 107.748ZM64.1475 106.381C64.1475 105.763 64.2954 105.281 64.5912 104.938C64.887 104.591 65.2967 104.418 65.8203 104.418C66.3474 104.418 66.7554 104.59 67.0444 104.933C67.3368 105.273 67.483 105.756 67.483 106.381C67.483 107 67.3351 107.485 67.0393 107.835C66.7435 108.182 66.3338 108.355 65.8101 108.355C65.2865 108.355 64.8785 108.182 64.5861 107.835C64.2937 107.488 64.1475 107.004 64.1475 106.381ZM59.7817 102.577C59.7817 101.961 59.9296 101.48 60.2254 101.133C60.5212 100.786 60.931 100.613 61.4546 100.613C61.9816 100.613 62.3896 100.785 62.6786 101.128C62.971 101.468 63.1172 101.951 63.1172 102.577C63.1172 103.199 62.971 103.682 62.6786 104.025C62.3862 104.369 61.9782 104.54 61.4546 104.54C60.9276 104.54 60.5161 104.369 60.2203 104.025C59.9279 103.682 59.7817 103.199 59.7817 102.577ZM61.4444 103.949C61.696 103.949 61.883 103.835 62.0054 103.607C62.1312 103.379 62.1941 103.036 62.1941 102.577C62.1941 102.135 62.1312 101.796 62.0054 101.562C61.8796 101.327 61.6994 101.21 61.4648 101.21C61.2132 101.21 61.0228 101.327 60.8936 101.562C60.7678 101.793 60.7049 102.135 60.7049 102.587C60.7049 103.025 60.7678 103.362 60.8936 103.597C61.0228 103.831 61.2064 103.949 61.4444 103.949ZM61.8116 108.355H61.1078L65.4633 100.613H66.1671L61.8116 108.355Z" fill="#25F2FF"/>
<rect x="95.0723" y="93.9072" width="20.3943" height="20.3943" rx="10.1971" fill="#25F2FF"/>
<path d="M108.568 105.495C108.555 105.79 108.319 106.026 108.024 106.04C107.688 106.056 107.41 105.779 107.426 105.442L107.557 102.59L102.517 107.63C102.303 107.844 101.957 107.844 101.744 107.63C101.53 107.417 101.53 107.07 101.744 106.857L106.784 101.816L103.932 101.948C103.595 101.964 103.318 101.686 103.334 101.35C103.348 101.055 103.584 100.819 103.879 100.806L108.64 100.586C108.723 100.582 108.792 100.651 108.788 100.734L108.568 105.495Z" fill="#181936"/>
<path fill-rule="evenodd" clip-rule="evenodd" d="M54.6973 31.2572V31.0609C54.651 31.0147 54.658 30.9552 54.6665 30.8824C54.6679 30.8709 54.6693 30.859 54.6705 30.8467C54.6615 29.544 54.4293 28.2769 54.0185 27.0366C52.9825 23.9224 51.2053 21.3079 48.7047 19.1753C46.7846 17.5424 44.5965 16.4181 42.1673 15.7399C41.0599 15.4365 39.9346 15.3116 38.7915 15.2759C37.5858 15.2402 36.3801 15.2491 35.1745 15.3384C33.8795 15.4276 32.6381 15.8113 31.4325 16.2664C28.7532 17.2836 26.4848 18.8987 24.5914 21.0224C23.234 22.5482 22.2158 24.2972 21.4746 26.1978C21.0459 27.3221 20.6887 28.4821 20.5726 29.6778C20.4475 31.0163 20.4565 32.3547 20.4833 33.6932C20.519 35.0763 20.7512 36.4058 21.1799 37.7086C21.7604 39.4843 22.6177 41.1262 23.7162 42.6431C24.4664 43.6782 25.3506 44.5794 26.2972 45.4271C27.5297 46.5336 28.9318 47.3991 30.4411 48.0862C31.8165 48.7108 33.2365 49.1837 34.7458 49.3622C34.9489 49.3847 35.1519 49.3946 35.355 49.4045C35.6342 49.4181 35.9134 49.4317 36.1926 49.4782H36.791C36.9249 49.4247 37.0589 49.4247 37.1928 49.4782H37.7912C37.9252 49.4247 38.0591 49.4247 38.1931 49.4782H38.595C38.6575 49.4336 38.7289 49.4336 38.7915 49.4782H38.9879C39.031 49.4352 39.0869 49.4387 39.1408 49.4422C39.1651 49.4438 39.189 49.4453 39.2112 49.4425C39.3911 49.4295 39.5717 49.4218 39.7524 49.4141C40.1909 49.3954 40.6299 49.3767 41.0599 49.2819C44.2839 48.5859 47.115 47.1314 49.5085 44.8382C51.2589 43.1606 52.5985 41.2243 53.5273 39.0025C54.0364 37.7889 54.4293 36.5397 54.5812 35.228C54.6037 35.0254 54.6136 34.8213 54.6235 34.6176C54.6371 34.3367 54.6507 34.0566 54.6973 33.7824V33.4523C54.6526 33.3898 54.6526 33.3184 54.6973 33.256V32.792C54.6437 32.5243 54.6437 32.2566 54.6973 31.9889V31.6587C54.6543 31.6096 54.6577 31.5521 54.6612 31.4948C54.6628 31.4688 54.6643 31.4429 54.6615 31.4178C54.6642 31.4017 54.6645 31.3849 54.6648 31.3679C54.6654 31.3284 54.666 31.2884 54.6973 31.2572ZM45.0394 39.5683C45.0407 39.3794 45.042 39.1907 45.042 39.0027C44.9647 38.8813 44.8363 38.8817 44.7188 38.8821C44.712 38.8822 44.7051 38.8822 44.6983 38.8822C44.5041 38.8682 44.3099 38.8839 44.1156 38.8996C43.9743 38.911 43.8331 38.9224 43.6918 38.9224H36.5152C36.3433 38.9224 36.1715 38.9063 36.016 38.8099C35.9416 38.7169 35.9734 38.624 36.0051 38.5311C36.0118 38.5115 36.0185 38.4919 36.0242 38.4724C36.0315 38.4473 36.0388 38.4223 36.0461 38.3974C36.1041 38.1989 36.1606 38.0053 36.2042 37.8054C36.4579 37.042 36.6788 36.2625 36.8834 35.4749C36.8998 35.4227 36.9182 35.3705 36.9366 35.3182C36.955 35.266 36.9734 35.2138 36.9898 35.1615C37.1698 34.5508 37.3499 33.932 37.5217 33.3213C37.5872 33.0883 37.7017 32.9597 37.9636 32.9115C38.3915 32.8341 38.8154 32.7491 39.2382 32.6643C39.43 32.6259 39.6215 32.5875 39.813 32.5498C39.8866 32.5257 39.9603 32.5097 40.0421 32.4936C40.6804 32.3891 41.3187 32.2847 41.9488 32.1239C42.0419 32.1011 42.1376 32.0886 42.233 32.0762C42.3053 32.0668 42.3774 32.0574 42.448 32.0436C42.9226 31.9472 42.9962 31.8346 42.8817 31.3766C42.8503 31.1202 42.7957 30.8704 42.7411 30.6209C42.7102 30.4793 42.6792 30.3378 42.6525 30.1953C42.6362 30.0266 42.5953 29.8578 42.5543 29.6971C42.5134 29.5364 42.4234 29.4399 42.2516 29.4078C42.1697 29.3944 42.0879 29.4089 42.0061 29.4234C41.9897 29.4263 41.9733 29.4292 41.957 29.4319C41.6492 29.4784 41.3457 29.5459 41.0435 29.6132C40.9278 29.6389 40.8123 29.6646 40.6968 29.689C40.5241 29.6987 40.3574 29.7347 40.1913 29.7705C40.0818 29.7942 39.9726 29.8177 39.8621 29.8337C39.6854 29.8575 39.5117 29.9015 39.3378 29.9455C39.1009 30.0055 38.8636 30.0655 38.6183 30.0748C38.4439 29.9733 38.504 29.8468 38.5571 29.7348C38.5714 29.7049 38.5851 29.676 38.5937 29.6489C38.8515 28.7609 39.1072 27.8709 39.3629 26.9809C39.6186 26.0909 39.8744 25.201 40.1321 24.313C40.1364 24.2971 40.1408 24.2813 40.1452 24.2654C40.1834 24.1285 40.2218 23.9909 40.1485 23.8469C39.7847 23.6995 39.4082 23.5993 39.0275 23.498C38.7232 23.417 38.4163 23.3352 38.1109 23.2281C37.849 23.1397 37.7508 23.196 37.6772 23.4612C37.3417 24.6344 37.0021 25.8057 36.6625 26.9769C36.3229 28.1481 35.9833 29.3194 35.6478 30.4926C35.5905 30.7176 35.4923 30.8221 35.255 30.8623C34.7495 30.9496 34.2402 31.0517 33.7322 31.1535C33.4919 31.2017 33.2519 31.2498 33.0128 31.2962C32.8701 31.3245 32.7272 31.3528 32.5841 31.3811C31.8737 31.5218 31.1585 31.6634 30.4433 31.8105C30.427 31.8135 30.4085 31.8148 30.3895 31.8162C30.3034 31.8224 30.2052 31.8294 30.2387 31.9873C30.3164 32.3529 30.3942 32.7205 30.4719 33.0881C30.5496 33.4558 30.6274 33.8235 30.7051 34.1892C30.8612 34.2914 31.0241 34.261 31.1875 34.2304C31.204 34.2274 31.2205 34.2243 31.237 34.2213C31.7485 34.1209 32.262 34.0204 32.7755 33.92C33.289 33.8195 33.8025 33.7191 34.3139 33.6186C34.5758 33.5624 34.6085 33.6026 34.543 33.8517C34.5194 33.9357 34.4948 34.0187 34.4702 34.1013C34.4266 34.248 34.3833 34.3937 34.3466 34.5428C34.2484 34.8843 34.1482 35.2238 34.0479 35.5634C33.9477 35.9029 33.8475 36.2424 33.7493 36.5839C33.7422 36.6105 33.7347 36.6368 33.7271 36.6631C33.6822 36.8199 33.6383 36.9732 33.7084 37.1384C33.7002 37.2027 33.692 37.2589 33.6756 37.3152C33.3074 38.5688 32.9391 39.8304 32.5791 41.084C32.5732 41.1015 32.5662 41.1191 32.5591 41.1371C32.527 41.2185 32.4927 41.3053 32.5464 41.3974C32.7182 41.5341 32.9228 41.5421 33.1274 41.5421C33.4038 41.5457 33.6787 41.5429 33.9534 41.5401C34.2966 41.5366 34.6395 41.5332 34.9849 41.5421C35.21 41.5421 35.4371 41.5381 35.6641 41.5341C35.8912 41.53 36.1183 41.526 36.3433 41.526C36.8414 41.5461 37.3338 41.5383 37.8252 41.5305C37.9232 41.5289 38.0211 41.5274 38.1191 41.526C38.2109 41.538 38.2981 41.5366 38.3876 41.5351C38.4178 41.5346 38.4482 41.5341 38.4791 41.5341C38.6892 41.5416 38.8992 41.5368 39.1092 41.5321C39.3493 41.5266 39.5893 41.5212 39.8294 41.5341C40.2876 41.5341 40.7377 41.5341 41.1878 41.518C41.5996 41.5482 42.016 41.5375 42.4301 41.527C42.5673 41.5235 42.7043 41.52 42.8408 41.518C43.2088 41.5421 43.5721 41.5391 43.9378 41.5361C44.0601 41.5351 44.1825 41.5341 44.3055 41.5341C44.4528 41.5421 44.5674 41.4778 44.6738 41.4055C45.0175 41.4457 45.0584 41.2769 45.0502 40.9876C45.0327 40.5167 45.036 40.0416 45.0394 39.5683Z" fill="#25F2FF"/>
<path d="M66.2823 38.4722V27.2722H68.1031V36.8427H72.173V38.4722H66.2823ZM76.4189 28.8175V38.4722H74.5982V28.8175H71.6222V27.2722H79.3796V28.8175H76.4189ZM89.1949 29.9957C88.6798 29.557 88.134 29.2281 87.5577 29.0088C86.9865 28.7895 86.3847 28.6798 85.7523 28.6798C84.5282 28.6798 83.5311 29.0725 82.761 29.858C81.996 30.6434 81.6135 31.6609 81.6135 32.9104C81.6135 34.1192 81.9858 35.1162 82.7304 35.9017C83.4801 36.6871 84.4237 37.0798 85.561 37.0798C86.224 37.0798 86.8539 36.9625 87.4506 36.7279C88.0524 36.4933 88.6288 36.1388 89.1796 35.6645V37.7224C88.69 38.0744 88.157 38.337 87.5807 38.5104C87.0044 38.6838 86.3796 38.7705 85.7064 38.7705C84.8495 38.7705 84.0565 38.6303 83.3271 38.3498C82.6029 38.0693 81.9654 37.6561 81.4146 37.1104C80.8688 36.5749 80.4481 35.945 80.1523 35.2208C79.8616 34.4915 79.7162 33.7162 79.7162 32.8951C79.7162 32.074 79.8616 31.3039 80.1523 30.5847C80.4481 29.8605 80.8739 29.2255 81.4299 28.6798C81.9858 28.129 82.6233 27.7133 83.3424 27.4328C84.0616 27.1472 84.8393 27.0044 85.6758 27.0044C86.3337 27.0044 86.961 27.1013 87.5577 27.2951C88.1544 27.4838 88.7333 27.772 89.2943 28.1596L89.1949 29.9957ZM95.6517 27.0197H96.9523L91.467 39.9257H90.1665L95.6517 27.0197ZM98.1993 27.2722H99.9971V34.0733C99.9971 35.0831 100.229 35.843 100.693 36.353C101.162 36.858 101.861 37.1104 102.789 37.1104C103.713 37.1104 104.406 36.858 104.87 36.353C105.34 35.843 105.574 35.0831 105.574 34.0733V27.2722H107.395V34.2416C107.395 35.7563 107.012 36.8911 106.247 37.6459C105.482 38.3957 104.33 38.7705 102.789 38.7705C101.249 38.7705 100.099 38.3957 99.3391 37.6459C98.5792 36.8962 98.1993 35.7614 98.1993 34.2416V27.2722ZM109.262 36.2306L110.715 35.5574C110.853 36.0572 111.105 36.4397 111.472 36.705C111.84 36.9651 112.309 37.0951 112.88 37.0951C113.421 37.0951 113.849 36.9447 114.165 36.6438C114.487 36.3428 114.647 35.9399 114.647 35.435C114.647 34.7771 114.102 34.1906 113.01 33.6754C112.857 33.5989 112.74 33.5428 112.658 33.5071C111.424 32.9053 110.6 32.3621 110.187 31.8776C109.779 31.388 109.575 30.7913 109.575 30.0875C109.575 29.1745 109.884 28.435 110.501 27.8689C111.123 27.3028 111.937 27.0197 112.941 27.0197C113.768 27.0197 114.459 27.1804 115.015 27.5017C115.57 27.8179 115.956 28.2744 116.17 28.8711L114.747 29.6055C114.522 29.2536 114.275 28.996 114.005 28.8328C113.74 28.6696 113.434 28.588 113.087 28.588C112.597 28.588 112.207 28.7155 111.916 28.9705C111.631 29.2255 111.488 29.5672 111.488 29.9957C111.488 30.6689 112.12 31.2962 113.385 31.8776C113.482 31.9235 113.558 31.9592 113.615 31.9847C114.721 32.4948 115.481 32.9946 115.894 33.4842C116.307 33.9687 116.514 34.5756 116.514 35.305C116.514 36.3658 116.18 37.2099 115.512 37.8372C114.844 38.4594 113.941 38.7705 112.804 38.7705C111.85 38.7705 111.067 38.5512 110.455 38.1126C109.848 37.674 109.45 37.0467 109.262 36.2306ZM120.324 36.8274H121.854C122.695 36.8274 123.325 36.7713 123.744 36.6591C124.167 36.5468 124.534 36.3581 124.845 36.0929C125.268 35.7308 125.585 35.282 125.794 34.7465C126.008 34.2059 126.115 33.5785 126.115 32.8645C126.115 32.1505 126.008 31.5257 125.794 30.9902C125.585 30.4496 125.268 29.9982 124.845 29.6361C124.529 29.3709 124.149 29.1822 123.705 29.07C123.267 28.9578 122.578 28.9017 121.64 28.9017H120.982H120.324V36.8274ZM118.503 38.4722V27.2722H120.959C122.555 27.2722 123.677 27.3538 124.325 27.517C124.978 27.6751 125.549 27.9428 126.039 28.3203C126.686 28.815 127.176 29.4499 127.507 30.2252C127.844 31.0004 128.012 31.8853 128.012 32.8798C128.012 33.8744 127.844 34.7567 127.507 35.5268C127.176 36.2918 126.686 36.9243 126.039 37.4241C125.549 37.8015 124.991 38.0718 124.363 38.235C123.741 38.3931 122.769 38.4722 121.448 38.4722H120.959H118.503ZM133.719 28.8175V38.4722H131.899V28.8175H128.923V27.2722H136.68V28.8175H133.719Z" fill="white"/>
<path d="M159.046 109.939C159.046 109.939 160.298 105.825 161.7 99.7863C162.628 95.7901 163.556 91.4943 166.648 88.7985C170.344 85.5769 175.201 85.4969 180.519 89.2646C182.209 90.4616 183.426 92.1846 184.796 93.737C188.411 97.8312 194.33 100.012 200.876 84.2093C201.703 82.2144 202.221 80.0944 202.626 77.9735C203.986 70.8628 206.798 61.3496 215.52 66.4575C220.391 69.3099 223.928 77.0914 229.004 74.6228C232.376 72.9828 236.803 67.9208 242.178 56.4531" stroke="#25F2FF" stroke-width="2.44508"/>
<circle cx="260.822" cy="37.441" r="1.22254" transform="rotate(180 260.822 37.441)" fill="white"/>
<circle cx="260.822" cy="32.5519" r="1.22254" transform="rotate(180 260.822 32.5519)" fill="white"/>
<circle cx="260.822" cy="27.6588" r="1.22254" transform="rotate(180 260.822 27.6588)" fill="white"/>
<defs>
<filter id="filter0_b_205_3804" x="-7.43108" y="-7.9616" width="297.373" height="188.757" filterUnits="userSpaceOnUse" color-interpolation-filters="sRGB">
<feFlood flood-opacity="0" result="BackgroundImageFix"/>
<feGaussianBlur in="BackgroundImageFix" stdDeviation="4.11728"/>
<feComposite in2="SourceAlpha" operator="in" result="effect1_backgroundBlur_205_3804"/>
<feBlend mode="normal" in="SourceGraphic" in2="effect1_backgroundBlur_205_3804" result="shape"/>
</filter>
<linearGradient id="paint0_linear_205_3804" x1="273.466" y1="166.016" x2="184.308" y2="54.0999" gradientUnits="userSpaceOnUse">
<stop stop-color="#00D1FF"/>
<stop offset="1" stop-color="#00D1FF" stop-opacity="0"/>
</linearGradient>
<linearGradient id="paint1_linear_205_3804" x1="-0.739961" y1="-0.159539" x2="97.8323" y2="127.287" gradientUnits="userSpaceOnUse">
<stop stop-color="#15BFFD"/>
<stop offset="1" stop-color="#00D1FF" stop-opacity="0"/>
</linearGradient>
</defs>
</svg>
