<svg width="46" height="46" viewBox="0 0 46 46" fill="none" xmlns="http://www.w3.org/2000/svg">
<rect x="1.05034" y="0.951465" width="44.1" height="44.1" rx="4.05" stroke="#094EFF" stroke-width="0.9"/>
<rect x="1.05034" y="0.951465" width="44.1" height="44.1" rx="4.05" stroke="url(#paint0_linear_205_3528)" stroke-width="0.9"/>
<path d="M23.2336 12.7407C24.7856 12.7407 26.274 13.4309 27.3714 14.6595C28.4688 15.8881 29.0853 17.5544 29.0853 19.2919C29.0853 26.5761 31.4587 28.0116 32.0998 28.0116H14.3674C15.0222 28.0116 17.3819 26.5608 17.3819 19.2919C17.3819 17.5544 17.9985 15.8881 19.0959 14.6595C20.1933 13.4309 21.6817 12.7407 23.2336 12.7407V12.7407Z" stroke="#094EFF" stroke-width="1.54286" stroke-linecap="round" stroke-linejoin="round"/>
<path d="M23.2336 12.7407C24.7856 12.7407 26.274 13.4309 27.3714 14.6595C28.4688 15.8881 29.0853 17.5544 29.0853 19.2919C29.0853 26.5761 31.4587 28.0116 32.0998 28.0116H14.3674C15.0222 28.0116 17.3819 26.5608 17.3819 19.2919C17.3819 17.5544 17.9985 15.8881 19.0959 14.6595C20.1933 13.4309 21.6817 12.7407 23.2336 12.7407V12.7407Z" stroke="url(#paint1_linear_205_3528)" stroke-width="1.54286" stroke-linecap="round" stroke-linejoin="round"/>
<g opacity="0.95">
<path d="M21.1877 30.8062C21.3057 31.3132 21.5705 31.7621 21.9408 32.0825C22.311 32.403 22.7658 32.5768 23.2338 32.5768C23.7018 32.5768 24.1566 32.403 24.5268 32.0825C24.8971 31.7621 25.1619 31.3132 25.2798 30.8062" stroke="#094EFF" stroke-width="1.54286" stroke-linecap="round" stroke-linejoin="round"/>
<path d="M21.1877 30.8062C21.3057 31.3132 21.5705 31.7621 21.9408 32.0825C22.311 32.403 22.7658 32.5768 23.2338 32.5768C23.7018 32.5768 24.1566 32.403 24.5268 32.0825C24.8971 31.7621 25.1619 31.3132 25.2798 30.8062" stroke="url(#paint2_linear_205_3528)" stroke-width="1.54286" stroke-linecap="round" stroke-linejoin="round"/>
</g>
<circle cx="29.4001" cy="16.7012" r="4.5" fill="#15BFFD"/>
<defs>
<linearGradient id="paint0_linear_205_3528" x1="6.90034" y1="0.501464" x2="45.6003" y2="47.7515" gradientUnits="userSpaceOnUse">
<stop stop-color="#15BFFD"/>
<stop offset="1" stop-color="#0C105A"/>
</linearGradient>
<linearGradient id="paint1_linear_205_3528" x1="18.3438" y1="12.4768" x2="30.2192" y2="36.273" gradientUnits="userSpaceOnUse">
<stop stop-color="#15BFFD"/>
<stop offset="1" stop-color="#0C105A"/>
</linearGradient>
<linearGradient id="paint2_linear_205_3528" x1="23.2338" y1="30.8062" x2="23.2338" y2="32.5768" gradientUnits="userSpaceOnUse">
<stop stop-color="#15BFFD"/>
<stop offset="1" stop-color="#0C105A"/>
</linearGradient>
</defs>
</svg>
