<svg width="19" height="19" viewBox="0 0 19 19" fill="none" xmlns="http://www.w3.org/2000/svg">
<g id="folder-2-line 1">
<g clip-path="url(#clip0_205_3647)">
<path id="Vector" d="M9.809 4.00861C9.97779 4.17739 10.2067 4.27221 10.4454 4.27221H16.5551C16.7553 4.27221 16.9473 4.35175 17.0889 4.49335C17.2305 4.63494 17.3101 4.82697 17.3101 5.02721V15.5972C17.3101 15.7975 17.2305 15.9895 17.0889 16.1311C16.9473 16.2727 16.7553 16.3522 16.5551 16.3522H2.96502C2.76478 16.3522 2.57275 16.2727 2.43116 16.1311C2.28957 15.9895 2.21002 15.7975 2.21002 15.5972V3.51721C2.21002 3.31697 2.28957 3.12493 2.43116 2.98334C2.57275 2.84175 2.76478 2.76221 2.96502 2.76221H8.18981C8.42851 2.76221 8.65743 2.85703 8.82621 3.02581L9.809 4.00861ZM15.8001 9.70222C15.8001 9.20516 15.3971 8.80222 14.9001 8.80222H4.62003C4.12297 8.80222 3.72003 9.20516 3.72003 9.70222V13.9422C3.72003 14.4393 4.12297 14.8422 4.62003 14.8422H14.9001C15.3971 14.8422 15.8001 14.4393 15.8001 13.9422V9.70222ZM15.045 7.29222C15.462 7.29222 15.8001 6.95419 15.8001 6.53721C15.8001 6.12024 15.462 5.78221 15.045 5.78221H9.82026C9.58156 5.78221 9.35265 5.68739 9.18386 5.51861L8.20107 4.53581C8.03229 4.36703 7.80337 4.27221 7.56467 4.27221H4.62003C4.12297 4.27221 3.72003 4.67515 3.72003 5.17221V6.39222C3.72003 6.88927 4.12297 7.29222 4.62003 7.29222H15.045Z" fill="white"/>
</g>
</g>
<defs>
<clipPath id="clip0_205_3647">
<rect x="0.700256" y="0.497559" width="18.12" height="18.12" rx="0.9" fill="white"/>
</clipPath>
</defs>
</svg>
