<svg width="25" height="25" viewBox="0 0 25 25" fill="none" xmlns="http://www.w3.org/2000/svg">
<g id="Frame 1261152851">
<g id="Group">
<path id="Vector" d="M3.60251 12.6634C3.60251 10.662 3.60127 8.6606 3.60251 6.6592C3.60374 4.84134 4.82031 3.60366 6.6099 3.60178C8.49788 3.59989 10.3852 3.59486 12.2732 3.60366C13.6352 3.60995 14.7955 4.47802 15.0405 5.83136C15.1927 6.6724 15.1414 7.55933 15.1148 8.42363C15.1005 8.88187 14.6915 9.15907 14.2515 9.13393C13.8215 9.10941 13.5028 8.77501 13.4904 8.30357C13.4768 7.76928 13.4867 7.23498 13.4842 6.70069C13.4799 5.77856 13.0145 5.30083 12.1173 5.30021C10.2918 5.29895 8.4657 5.29895 6.64022 5.30021C5.73615 5.30083 5.27514 5.77164 5.27514 6.6944C5.27452 10.6658 5.27452 14.6372 5.27514 18.6079C5.27514 19.5313 5.73615 20.0034 6.63837 20.004C8.46385 20.0052 10.2899 20.0052 12.1154 20.004C13.0139 20.0034 13.4799 19.5263 13.4836 18.6048C13.4861 18.0076 13.4793 17.4105 13.4861 16.8133C13.4923 16.2608 13.8048 15.9069 14.2856 15.8906C14.7608 15.8742 15.1389 16.2237 15.1482 16.7605C15.1618 17.545 15.1791 18.3351 15.1086 19.1145C14.9762 20.5741 13.8171 21.6741 12.3877 21.6936C10.3766 21.7213 8.36422 21.7251 6.35371 21.6924C4.81598 21.6678 3.61179 20.3723 3.60498 18.7927C3.5957 16.7498 3.60251 14.7069 3.60251 12.6634Z" fill="white"/>
<path id="Vector_2" d="M18.5115 11.7191C18.0288 11.2357 17.543 10.7561 17.0647 10.2683C16.8246 10.0238 16.7089 9.73022 16.811 9.38387C16.9081 9.05513 17.1297 8.85524 17.4613 8.78484C17.7472 8.72449 17.9941 8.81689 18.1934 9.01804C19.1884 10.0213 20.1822 11.0251 21.168 12.0371C21.5226 12.4011 21.5207 12.9077 21.1649 13.2729C20.1866 14.278 19.2014 15.2762 18.212 16.2706C17.8518 16.6327 17.3642 16.6333 17.0251 16.297C16.6804 15.9551 16.6773 15.4421 17.0399 15.0663C17.522 14.5672 18.0183 14.0819 18.5758 13.5237C18.3753 13.5143 18.2602 13.5049 18.1451 13.5049C15.9187 13.5036 13.6916 13.5055 11.4651 13.503C10.9249 13.5023 10.5944 13.2497 10.5183 12.7958C10.4385 12.3212 10.7442 11.8875 11.2145 11.8203C11.3463 11.8014 11.4818 11.8039 11.6155 11.8039C13.7801 11.8033 15.9453 11.8033 18.1098 11.8033C18.2318 11.8033 18.353 11.8033 18.4749 11.8033C18.4879 11.7756 18.4997 11.7473 18.5115 11.7191Z" fill="white"/>
</g>
</g>
</svg>
