<svg width="25" height="25" viewBox="0 0 25 25" fill="none" xmlns="http://www.w3.org/2000/svg">
<g id="Frame 1261152851">
<g id="Group">
<path id="Vector" d="M21.4359 11.8603C21.4354 16.8672 17.4399 20.9208 12.5091 20.9168C7.5812 20.9134 3.59459 16.8525 3.60016 11.8416C3.60574 6.83752 7.60851 2.7902 12.5409 2.79982C17.4571 2.80945 21.4365 6.86356 21.4359 11.8603ZM12.5186 19.6532C16.741 19.6526 20.1847 16.1561 20.1909 11.8648C20.1975 7.57802 16.7599 4.07703 12.5309 4.06401C8.30517 4.05042 4.83744 7.5701 4.84469 11.866C4.85194 16.1573 8.29737 19.6537 12.5186 19.6532Z" fill="white"/>
<path id="Vector_2" d="M11.6228 13.1572C11.6228 12.4501 11.6222 11.743 11.6228 11.0359C11.6233 10.6792 11.7548 10.4867 12.0948 10.4097C12.2815 10.3673 12.4827 10.3497 12.6722 10.3707C13.3377 10.4454 13.4413 10.6747 13.4324 11.2369C13.4118 12.5378 13.4257 13.8394 13.4257 15.1404C13.4257 15.7552 13.0768 16.0836 12.4627 16.0298C12.2994 16.0156 12.1322 15.9703 11.9806 15.9069C11.7387 15.8056 11.6116 15.6267 11.6172 15.3363C11.6328 14.6093 11.6228 13.883 11.6228 13.1572Z" fill="white"/>
<path id="Vector_3" d="M12.5289 7.55276C13.045 7.55615 13.4685 7.93433 13.4691 8.39291C13.4696 8.85487 13.0232 9.2557 12.5105 9.25344C11.9927 9.25117 11.5552 8.85374 11.5586 8.38781C11.5619 7.91792 11.9899 7.54936 12.5289 7.55276Z" fill="white"/>
</g>
</g>
</svg>
