<svg width="19" height="19" viewBox="0 0 19 19" fill="none" xmlns="http://www.w3.org/2000/svg">
<g id="user-3-line 1" clip-path="url(#clip0_205_3639)">
<path id="Vector" d="M15.9002 17.2066H14.3902V15.6966C14.3902 15.0959 14.1516 14.5198 13.7268 14.095C13.302 13.6702 12.7259 13.4316 12.1252 13.4316H7.5952C6.99448 13.4316 6.41837 13.6702 5.9936 14.095C5.56883 14.5198 5.33019 15.0959 5.33019 15.6966V17.2066H3.82019V15.6966C3.82019 14.6954 4.21791 13.7352 4.92586 13.0273C5.63382 12.3193 6.594 11.9216 7.5952 11.9216H12.1252C13.1264 11.9216 14.0866 12.3193 14.7945 13.0273C15.5025 13.7352 15.9002 14.6954 15.9002 15.6966V17.2066ZM9.8602 10.4116C9.26531 10.4116 8.67625 10.2944 8.12664 10.0668C7.57704 9.8391 7.07765 9.50542 6.657 9.08477C6.23635 8.66412 5.90267 8.16474 5.67502 7.61513C5.44737 7.06553 5.33019 6.47646 5.33019 5.88157C5.33019 5.28668 5.44737 4.69762 5.67502 4.14801C5.90267 3.59841 6.23635 3.09902 6.657 2.67837C7.07765 2.25772 7.57704 1.92404 8.12664 1.69639C8.67625 1.46873 9.26531 1.35156 9.8602 1.35156C11.0616 1.35156 12.2139 1.82883 13.0634 2.67837C13.9129 3.52791 14.3902 4.68014 14.3902 5.88157C14.3902 7.083 13.9129 8.23523 13.0634 9.08477C12.2139 9.93431 11.0616 10.4116 9.8602 10.4116ZM9.8602 8.90158C10.6612 8.90158 11.4293 8.5834 11.9957 8.01704C12.562 7.45068 12.8802 6.68253 12.8802 5.88157C12.8802 5.08062 12.562 4.31247 11.9957 3.7461C11.4293 3.17974 10.6612 2.86157 9.8602 2.86157C9.05925 2.86157 8.2911 3.17974 7.72474 3.7461C7.15837 4.31247 6.8402 5.08062 6.8402 5.88157C6.8402 6.68253 7.15837 7.45068 7.72474 8.01704C8.2911 8.5834 9.05925 8.90158 9.8602 8.90158Z" fill="white"/>
</g>
<defs>
<clipPath id="clip0_205_3639">
<rect width="18.12" height="18.12" fill="white" transform="translate(0.800049 0.600098)"/>
</clipPath>
</defs>
</svg>
