<svg width="19" height="19" viewBox="0 0 19 19" fill="none" xmlns="http://www.w3.org/2000/svg">
<path id="Vector" d="M0.774902 8.57326C0.774902 9.40721 1.45095 10.0833 2.28491 10.0833H7.31825C8.1522 10.0833 8.82825 9.40721 8.82825 8.57326V1.56616C8.82825 0.732205 8.1522 0.0561523 7.31825 0.0561523H2.28491C1.45095 0.0561523 0.774902 0.732204 0.774902 1.56616V8.57326ZM0.774902 16.5949C0.774902 17.4289 1.45095 18.1049 2.28491 18.1049H7.31825C8.1522 18.1049 8.82825 17.4289 8.82825 16.5949V13.5987C8.82825 12.7647 8.1522 12.0887 7.31825 12.0887H2.28491C1.45095 12.0887 0.774902 12.7647 0.774902 13.5987V16.5949ZM10.8416 16.5949C10.8416 17.4289 11.5176 18.1049 12.3516 18.1049H17.3849C18.2189 18.1049 18.8949 17.4289 18.8949 16.5949V9.58784C18.8949 8.75389 18.2189 8.07784 17.3849 8.07784H12.3516C11.5176 8.07784 10.8416 8.75389 10.8416 9.58784V16.5949ZM12.3516 0.0561523C11.5176 0.0561523 10.8416 0.732204 10.8416 1.56616V4.56241C10.8416 5.39637 11.5176 6.07242 12.3516 6.07242H17.3849C18.2189 6.07242 18.8949 5.39637 18.8949 4.56241V1.56616C18.8949 0.732203 18.2189 0.0561523 17.3849 0.0561523H12.3516Z" fill="white"/>
</svg>
