<svg width="26" height="25" viewBox="0 0 26 25" fill="none" xmlns="http://www.w3.org/2000/svg">
<g id="Vector">
<path id="Vector_2" d="M0.623291 20.8403C0.623291 22.9218 2.21506 24.5136 4.2966 24.5136H21.4387C23.5202 24.5136 25.112 22.9218 25.112 20.8403V11.0448H0.623291V20.8403ZM21.4387 2.47377H18.9898V1.24934C18.9898 0.514676 18.5 0.0249023 17.7654 0.0249023C17.0307 0.0249023 16.541 0.514676 16.541 1.24934V2.47377H9.19434V1.24934C9.19434 0.514676 8.70456 0.0249023 7.9699 0.0249023C7.23524 0.0249023 6.74547 0.514676 6.74547 1.24934V2.47377H4.2966C2.21506 2.47377 0.623291 4.06554 0.623291 6.14708V8.59595H25.112V6.14708C25.112 4.06554 23.5202 2.47377 21.4387 2.47377Z" fill="url(#paint0_linear_205_3680)"/>
</g>
<defs>
<linearGradient id="paint0_linear_205_3680" x1="1.7064" y1="12.0097" x2="25.074" y2="11.7461" gradientUnits="userSpaceOnUse">
<stop stop-color="#3AD6D4"/>
<stop offset="1" stop-color="#36A7EF"/>
</linearGradient>
</defs>
</svg>
